<svg xmlns="http://www.w3.org/2000/svg" width="1000" height="400"><rect width="1000" height="400" x="0" y="0" fill="#FFFFFF" id="background"/><g transform="translate(100,100)" id="viz"><g fill="none" font-size="10" font-family="sans-serif" text-anchor="middle"><path class="domain" stroke="currentColor" d="M0,0H800"/><g class="tick" opacity="1" transform="translate(17.683465959328053,0)"><line stroke="currentColor" y2="-6"/><text fill="currentColor" y="-9" dy="3.4641016151377544" dx="3.4641016151377544" text-anchor="start" transform="rotate(-45)">1</text></g><g class="tick" opacity="1" transform="translate(50.92838196286474,0)"><line stroke="currentColor" y2="-6"/><text fill="currentColor" y="-9" dy="3.4641016151377544" dx="3.4641016151377544" text-anchor="start" transform="rotate(-45)">2</text></g><g class="tick" opacity="1" transform="translate(84.17329796640144,0)"><line stroke="currentColor" y2="-6"/><text fill="currentColor" y="-9" dy="3.4641016151377544" dx="3.4641016151377544" text-anchor="start" transform="rotate(-45)">3</text></g><g class="tick" opacity="1" transform="translate(117.41821396993811,0)"><line stroke="currentColor" y2="-6"/><text fill="currentColor" y="-9" dy="3.4641016151377544" dx="3.4641016151377544" text-anchor="start" transform="rotate(-45)">4</text></g><g class="tick" opacity="1" transform="translate(150.6631299734748,0)"><line stroke="currentColor" y2="-6"/><text fill="currentColor" y="-9" dy="3.4641016151377544" dx="3.4641016151377544" text-anchor="start" transform="rotate(-45)">5</text></g><g class="tick" opacity="1" transform="translate(183.90804597701148,0)"><line stroke="currentColor" y2="-6"/><text fill="currentColor" y="-9" dy="3.4641016151377544" dx="3.4641016151377544" text-anchor="start" transform="rotate(-45)">6</text></g><g class="tick" opacity="1" transform="translate(217.15296198054818,0)"><line stroke="currentColor" y2="-6"/><text fill="currentColor" y="-9" dy="3.4641016151377544" dx="3.4641016151377544" text-anchor="start" transform="rotate(-45)">7</text></g><g class="tick" opacity="1" transform="translate(250.3978779840849,0)"><line stroke="currentColor" y2="-6"/><text fill="currentColor" y="-9" dy="3.4641016151377544" dx="3.4641016151377544" text-anchor="start" transform="rotate(-45)">8</text></g><g class="tick" opacity="1" transform="translate(283.64279398762153,0)"><line stroke="currentColor" y2="-6"/><text fill="currentColor" y="-9" dy="3.4641016151377544" dx="3.4641016151377544" text-anchor="start" transform="rotate(-45)">9</text></g><g class="tick" opacity="1" transform="translate(316.8877099911582,0)"><line stroke="currentColor" y2="-6"/><text fill="currentColor" y="-9" dy="3.4641016151377544" dx="3.4641016151377544" text-anchor="start" transform="rotate(-45)">10</text></g><g class="tick" opacity="1" transform="translate(350.1326259946949,0)"><line stroke="currentColor" y2="-6"/><text fill="currentColor" y="-9" dy="3.4641016151377544" dx="3.4641016151377544" text-anchor="start" transform="rotate(-45)">11</text></g><g class="tick" opacity="1" transform="translate(383.3775419982316,0)"><line stroke="currentColor" y2="-6"/><text fill="currentColor" y="-9" dy="3.4641016151377544" dx="3.4641016151377544" text-anchor="start" transform="rotate(-45)">12</text></g><g class="tick" opacity="1" transform="translate(416.6224580017683,0)"><line stroke="currentColor" y2="-6"/><text fill="currentColor" y="-9" dy="3.4641016151377544" dx="3.4641016151377544" text-anchor="start" transform="rotate(-45)">13</text></g><g class="tick" opacity="1" transform="translate(449.86737400530495,0)"><line stroke="currentColor" y2="-6"/><text fill="currentColor" y="-9" dy="3.4641016151377544" dx="3.4641016151377544" text-anchor="start" transform="rotate(-45)">14</text></g><g class="tick" opacity="1" transform="translate(483.1122900088417,0)"><line stroke="currentColor" y2="-6"/><text fill="currentColor" y="-9" dy="3.4641016151377544" dx="3.4641016151377544" text-anchor="start" transform="rotate(-45)">15</text></g><g class="tick" opacity="1" transform="translate(516.3572060123784,0)"><line stroke="currentColor" y2="-6"/><text fill="currentColor" y="-9" dy="3.4641016151377544" dx="3.4641016151377544" text-anchor="start" transform="rotate(-45)">16</text></g><g class="tick" opacity="1" transform="translate(549.602122015915,0)"><line stroke="currentColor" y2="-6"/><text fill="currentColor" y="-9" dy="3.4641016151377544" dx="3.4641016151377544" text-anchor="start" transform="rotate(-45)">17</text></g><g class="tick" opacity="1" transform="translate(582.8470380194517,0)"><line stroke="currentColor" y2="-6"/><text fill="currentColor" y="-9" dy="3.4641016151377544" dx="3.4641016151377544" text-anchor="start" transform="rotate(-45)">18</text></g><g class="tick" opacity="1" transform="translate(616.0919540229884,0)"><line stroke="currentColor" y2="-6"/><text fill="currentColor" y="-9" dy="3.4641016151377544" dx="3.4641016151377544" text-anchor="start" transform="rotate(-45)">19</text></g><g class="tick" opacity="1" transform="translate(649.336870026525,0)"><line stroke="currentColor" y2="-6"/><text fill="currentColor" y="-9" dy="3.4641016151377544" dx="3.4641016151377544" text-anchor="start" transform="rotate(-45)">20</text></g><g class="tick" opacity="1" transform="translate(682.5817860300617,0)"><line stroke="currentColor" y2="-6"/><text fill="currentColor" y="-9" dy="3.4641016151377544" dx="3.4641016151377544" text-anchor="start" transform="rotate(-45)">21</text></g><g class="tick" opacity="1" transform="translate(715.8267020335985,0)"><line stroke="currentColor" y2="-6"/><text fill="currentColor" y="-9" dy="3.4641016151377544" dx="3.4641016151377544" text-anchor="start" transform="rotate(-45)">22</text></g><g class="tick" opacity="1" transform="translate(749.0716180371352,0)"><line stroke="currentColor" y2="-6"/><text fill="currentColor" y="-9" dy="3.4641016151377544" dx="3.4641016151377544" text-anchor="start" transform="rotate(-45)">23</text></g><g class="tick" opacity="1" transform="translate(782.3165340406719,0)"><line stroke="currentColor" y2="-6"/><text fill="currentColor" y="-9" dy="3.4641016151377544" dx="3.4641016151377544" text-anchor="start" transform="rotate(-45)">0</text></g></g><g fill="none" font-size="10" font-family="sans-serif" text-anchor="end"><path class="domain" stroke="currentColor" d="M0,0V233.33333333333331"/><g class="tick" opacity="1" transform="translate(0,17.570281124497985)"><line stroke="currentColor" x2="-6"/><text fill="currentColor" x="-9" dy="0.32em">Monday</text></g><g class="tick" opacity="1" transform="translate(0,50.60240963855421)"><line stroke="currentColor" x2="-6"/><text fill="currentColor" x="-9" dy="0.32em">Tuesday</text></g><g class="tick" opacity="1" transform="translate(0,83.63453815261043)"><line stroke="currentColor" x2="-6"/><text fill="currentColor" x="-9" dy="0.32em">Wednesday</text></g><g class="tick" opacity="1" transform="translate(0,116.66666666666666)"><line stroke="currentColor" x2="-6"/><text fill="currentColor" x="-9" dy="0.32em">Thursday</text></g><g class="tick" opacity="1" transform="translate(0,149.6987951807229)"><line stroke="currentColor" x2="-6"/><text fill="currentColor" x="-9" dy="0.32em">Friday</text></g><g class="tick" opacity="1" transform="translate(0,182.73092369477914)"><line stroke="currentColor" x2="-6"/><text fill="currentColor" x="-9" dy="0.32em">Saturday</text></g><g class="tick" opacity="1" transform="translate(0,215.76305220883535)"><line stroke="currentColor" x2="-6"/><text fill="currentColor" x="-9" dy="0.32em">Sunday</text></g></g><text dx="-9" dy="-9" style="text-anchor: end; font-family: Arial, sans-serif; font-size: 12px; fill: rgb(123, 123, 123); font-weight: bold;">dia de semana</text><text x="572.0493859799169" y="572.0493859799169" dx="3.4641016151377544" dy="-3.4641016151377544" transform="rotate(-45)" style="text-anchor: start; font-family: Arial, sans-serif; font-size: 12px; fill: rgb(123, 123, 123); font-weight: bold;">Hora</text><rect x="17.788682581786055" y="17.775100401606416" rx="0" ry="0" width="0" height="0" style="fill: rgb(247, 251, 255);"/><rect x="51.03359858532274" y="50.80722891566264" rx="0" ry="0" width="0" height="0" style="fill: rgb(247, 251, 255);"/><rect x="84.27851458885944" y="83.83935742971887" rx="0" ry="0" width="0" height="0" style="fill: rgb(247, 251, 255);"/><rect x="117.52343059239612" y="116.8714859437751" rx="0" ry="0" width="0" height="0" style="fill: rgb(247, 251, 255);"/><rect x="150.7683465959328" y="149.9036144578313" rx="0" ry="0" width="0" height="0" style="fill: rgb(247, 251, 255);"/><rect x="184.01326259946947" y="182.93574297188755" rx="0" ry="0" width="0" height="0" style="fill: rgb(247, 251, 255);"/><rect x="217.25817860300617" y="215.96787148594376" rx="0" ry="0" width="0" height="0" style="fill: rgb(247, 251, 255);"/><rect x="250.50309460654287" y="17.775100401606416" rx="0" ry="0" width="0" height="0" style="fill: rgb(247, 251, 255);"/><rect x="283.7480106100796" y="50.80722891566264" rx="0" ry="0" width="0" height="0" style="fill: rgb(247, 251, 255);"/><rect x="316.99292661361625" y="83.83935742971887" rx="0" ry="0" width="0" height="0" style="fill: rgb(247, 251, 255);"/><rect x="350.2378426171529" y="116.8714859437751" rx="0" ry="0" width="0" height="0" style="fill: rgb(247, 251, 255);"/><rect x="383.48275862068965" y="149.9036144578313" rx="0" ry="0" width="0" height="0" style="fill: rgb(247, 251, 255);"/><rect x="407.68252040692215" y="173.89058875458343" rx="0" ry="0" width="18.090308434608275" height="18.090308434608275" style="fill: rgb(171, 207, 230);"/><rect x="449.972590627763" y="215.96787148594376" rx="0" ry="0" width="0" height="0" style="fill: rgb(247, 251, 255);"/><rect x="483.2175066312997" y="17.775100401606416" rx="0" ry="0" width="0" height="0" style="fill: rgb(247, 251, 255);"/><rect x="516.4624226348363" y="50.80722891566264" rx="0" ry="0" width="0" height="0" style="fill: rgb(247, 251, 255);"/><rect x="549.707338638373" y="83.83935742971887" rx="0" ry="0" width="0" height="0" style="fill: rgb(247, 251, 255);"/><rect x="582.9522546419097" y="116.8714859437751" rx="0" ry="0" width="0" height="0" style="fill: rgb(247, 251, 255);"/><rect x="616.1971706454464" y="149.9036144578313" rx="0" ry="0" width="0" height="0" style="fill: rgb(247, 251, 255);"/><rect x="636.6503068811154" y="170.14396320401985" rx="0" ry="0" width="25.583559535735418" height="25.583559535735418" style="fill: rgb(55, 135, 192);"/><rect x="682.6870026525197" y="182.93574297188755" rx="0" ry="0" width="0" height="0" style="fill: rgb(247, 251, 255);"/><rect x="703.1401388881889" y="4.983320633738709" rx="0" ry="0" width="25.583559535735418" height="25.583559535735418" style="fill: rgb(55, 135, 192);"/><rect x="733.5101679929265" y="35.14056224899598" rx="0" ry="0" width="31.333333333333332" height="31.333333333333332" style="fill: rgb(8, 48, 107);"/><rect x="782.4217506631298" y="83.83935742971887" rx="0" ry="0" width="0" height="0" style="fill: rgb(247, 251, 255);"/><rect x="403.9358948563586" y="104.07970617590739" rx="0" ry="0" width="25.583559535735418" height="25.583559535735418" style="fill: rgb(55, 135, 192);"/><rect x="407.68252040692215" y="41.762074698358504" rx="0" ry="0" width="18.090308434608275" height="18.090308434608275" style="fill: rgb(171, 207, 230);"/><rect x="407.68252040692215" y="140.8584602405272" rx="0" ry="0" width="18.090308434608275" height="18.090308434608275" style="fill: rgb(171, 207, 230);"/><rect x="607.1520164281422" y="41.762074698358504" rx="0" ry="0" width="18.090308434608275" height="18.090308434608275" style="fill: rgb(171, 207, 230);"/><rect x="673.6418484352156" y="8.72994618430228" rx="0" ry="0" width="18.090308434608275" height="18.090308434608275" style="fill: rgb(171, 207, 230);"/><rect x="474.17235241399555" y="107.82633172647095" rx="0" ry="0" width="18.090308434608275" height="18.090308434608275" style="fill: rgb(171, 207, 230);"/><rect x="470.425726863432" y="203.17609171807607" rx="0" ry="0" width="25.583559535735418" height="25.583559535735418" style="fill: rgb(55, 135, 192);"/><rect x="740.131680442289" y="74.79420321241473" rx="0" ry="0" width="18.090308434608275" height="18.090308434608275" style="fill: rgb(171, 207, 230);"/><rect x="673.6418484352156" y="206.92271726863964" rx="0" ry="0" width="18.090308434608275" height="18.090308434608275" style="fill: rgb(171, 207, 230);"/><rect x="703.1401388881889" y="104.07970617590739" rx="0" ry="0" width="25.583559535735418" height="25.583559535735418" style="fill: rgb(55, 135, 192);"/><rect x="706.8867644387524" y="74.79420321241473" rx="0" ry="0" width="18.090308434608275" height="18.090308434608275" style="fill: rgb(171, 207, 230);"/><rect x="374.4376044033855" y="206.92271726863964" rx="0" ry="0" width="18.090308434608275" height="18.090308434608275" style="fill: rgb(171, 207, 230);"/><rect x="700.2652519893899" y="35.14056224899598" rx="0" ry="0" width="31.333333333333332" height="31.333333333333332" style="fill: rgb(8, 48, 107);"/><rect x="740.131680442289" y="107.82633172647095" rx="0" ry="0" width="18.090308434608275" height="18.090308434608275" style="fill: rgb(171, 207, 230);"/><rect x="773.3765964458257" y="107.82633172647095" rx="0" ry="0" width="18.090308434608275" height="18.090308434608275" style="fill: rgb(171, 207, 230);"/><rect x="341.19268839984875" y="206.92271726863964" rx="0" ry="0" width="18.090308434608275" height="18.090308434608275" style="fill: rgb(171, 207, 230);"/><g id="labels"><g transform="translate(17.788682581786055,17.775100401606416)"><text x="0" y="0" text-anchor="middle" dominant-baseline="text-before-edge" transform="translate(0,0)"/></g><g transform="translate(51.03359858532274,50.80722891566264)"><text x="0" y="0" text-anchor="middle" dominant-baseline="text-before-edge" transform="translate(0,0)"/></g><g transform="translate(84.27851458885944,83.83935742971887)"><text x="0" y="0" text-anchor="middle" dominant-baseline="text-before-edge" transform="translate(0,0)"/></g><g transform="translate(117.52343059239612,116.8714859437751)"><text x="0" y="0" text-anchor="middle" dominant-baseline="text-before-edge" transform="translate(0,0)"/></g><g transform="translate(150.7683465959328,149.9036144578313)"><text x="0" y="0" text-anchor="middle" dominant-baseline="text-before-edge" transform="translate(0,0)"/></g><g transform="translate(184.01326259946947,182.93574297188755)"><text x="0" y="0" text-anchor="middle" dominant-baseline="text-before-edge" transform="translate(0,0)"/></g><g transform="translate(217.25817860300617,215.96787148594376)"><text x="0" y="0" text-anchor="middle" dominant-baseline="text-before-edge" transform="translate(0,0)"/></g><g transform="translate(250.50309460654287,17.775100401606416)"><text x="0" y="0" text-anchor="middle" dominant-baseline="text-before-edge" transform="translate(0,0)"/></g><g transform="translate(283.7480106100796,50.80722891566264)"><text x="0" y="0" text-anchor="middle" dominant-baseline="text-before-edge" transform="translate(0,0)"/></g><g transform="translate(316.99292661361625,83.83935742971887)"><text x="0" y="0" text-anchor="middle" dominant-baseline="text-before-edge" transform="translate(0,0)"/></g><g transform="translate(350.2378426171529,116.8714859437751)"><text x="0" y="0" text-anchor="middle" dominant-baseline="text-before-edge" transform="translate(0,0)"/></g><g transform="translate(383.48275862068965,149.9036144578313)"><text x="0" y="0" text-anchor="middle" dominant-baseline="text-before-edge" transform="translate(0,0)"/></g><g transform="translate(416.7276746242263,182.93574297188755)"><text x="0" y="0" text-anchor="middle" dominant-baseline="text-before-edge" transform="translate(0,0)"/></g><g transform="translate(449.972590627763,215.96787148594376)"><text x="0" y="0" text-anchor="middle" dominant-baseline="text-before-edge" transform="translate(0,0)"/></g><g transform="translate(483.2175066312997,17.775100401606416)"><text x="0" y="0" text-anchor="middle" dominant-baseline="text-before-edge" transform="translate(0,0)"/></g><g transform="translate(516.4624226348363,50.80722891566264)"><text x="0" y="0" text-anchor="middle" dominant-baseline="text-before-edge" transform="translate(0,0)"/></g><g transform="translate(549.707338638373,83.83935742971887)"><text x="0" y="0" text-anchor="middle" dominant-baseline="text-before-edge" transform="translate(0,0)"/></g><g transform="translate(582.9522546419097,116.8714859437751)"><text x="0" y="0" text-anchor="middle" dominant-baseline="text-before-edge" transform="translate(0,0)"/></g><g transform="translate(616.1971706454464,149.9036144578313)"><text x="0" y="0" text-anchor="middle" dominant-baseline="text-before-edge" transform="translate(0,0)"/></g><g transform="translate(649.442086648983,182.93574297188755)"><text x="0" y="0" text-anchor="middle" dominant-baseline="text-before-edge" transform="translate(0,0)"/></g><g transform="translate(682.6870026525197,182.93574297188755)"><text x="0" y="0" text-anchor="middle" dominant-baseline="text-before-edge" transform="translate(0,0)"/></g><g transform="translate(715.9319186560565,17.775100401606416)"><text x="0" y="0" text-anchor="middle" dominant-baseline="text-before-edge" transform="translate(0,0)"/></g><g transform="translate(749.1768346595932,50.80722891566264)"><text x="0" y="0" text-anchor="middle" dominant-baseline="text-before-edge" transform="translate(0,0)"/></g><g transform="translate(782.4217506631298,83.83935742971887)"><text x="0" y="0" text-anchor="middle" dominant-baseline="text-before-edge" transform="translate(0,0)"/></g><g transform="translate(416.7276746242263,116.8714859437751)"><text x="0" y="0" text-anchor="middle" dominant-baseline="text-before-edge" transform="translate(0,0)"/></g><g transform="translate(416.7276746242263,50.80722891566264)"><text x="0" y="0" text-anchor="middle" dominant-baseline="text-before-edge" transform="translate(0,0)"/></g><g transform="translate(416.7276746242263,149.9036144578313)"><text x="0" y="0" text-anchor="middle" dominant-baseline="text-before-edge" transform="translate(0,0)"/></g><g transform="translate(616.1971706454464,50.80722891566264)"><text x="0" y="0" text-anchor="middle" dominant-baseline="text-before-edge" transform="translate(0,0)"/></g><g transform="translate(682.6870026525197,17.775100401606416)"><text x="0" y="0" text-anchor="middle" dominant-baseline="text-before-edge" transform="translate(0,0)"/></g><g transform="translate(483.2175066312997,116.8714859437751)"><text x="0" y="0" text-anchor="middle" dominant-baseline="text-before-edge" transform="translate(0,0)"/></g><g transform="translate(483.2175066312997,215.96787148594376)"><text x="0" y="0" text-anchor="middle" dominant-baseline="text-before-edge" transform="translate(0,0)"/></g><g transform="translate(749.1768346595932,83.83935742971887)"><text x="0" y="0" text-anchor="middle" dominant-baseline="text-before-edge" transform="translate(0,0)"/></g><g transform="translate(682.6870026525197,215.96787148594376)"><text x="0" y="0" text-anchor="middle" dominant-baseline="text-before-edge" transform="translate(0,0)"/></g><g transform="translate(715.9319186560565,116.8714859437751)"><text x="0" y="0" text-anchor="middle" dominant-baseline="text-before-edge" transform="translate(0,0)"/></g><g transform="translate(715.9319186560565,83.83935742971887)"><text x="0" y="0" text-anchor="middle" dominant-baseline="text-before-edge" transform="translate(0,0)"/></g><g transform="translate(383.48275862068965,215.96787148594376)"><text x="0" y="0" text-anchor="middle" dominant-baseline="text-before-edge" transform="translate(0,0)"/></g><g transform="translate(715.9319186560565,50.80722891566264)"><text x="0" y="0" text-anchor="middle" dominant-baseline="text-before-edge" transform="translate(0,0)"/></g><g transform="translate(749.1768346595932,116.8714859437751)"><text x="0" y="0" text-anchor="middle" dominant-baseline="text-before-edge" transform="translate(0,0)"/></g><g transform="translate(782.4217506631298,116.8714859437751)"><text x="0" y="0" text-anchor="middle" dominant-baseline="text-before-edge" transform="translate(0,0)"/></g><g transform="translate(350.2378426171529,215.96787148594376)"><text x="0" y="0" text-anchor="middle" dominant-baseline="text-before-edge" transform="translate(0,0)"/></g></g></g></svg>
