<svg xmlns="http://www.w3.org/2000/svg" width="1000" height="400"><rect width="1000" height="400" x="0" y="0" fill="#FFFFFF" id="background"/><g transform="translate(140,100)" id="viz"><g fill="none" font-size="10" font-family="sans-serif" text-anchor="middle"><path class="domain" stroke="currentColor" d="M0,0H760"/><g class="tick" opacity="1" transform="translate(16.853408029878583,0)"><line stroke="currentColor" y2="-6"/><text fill="currentColor" y="-9" dy="3.4641016151377544" dx="3.4641016151377544" text-anchor="start" transform="rotate(-45)">1</text></g><g class="tick" opacity="1" transform="translate(48.43137254901957,0)"><line stroke="currentColor" y2="-6"/><text fill="currentColor" y="-9" dy="3.4641016151377544" dx="3.4641016151377544" text-anchor="start" transform="rotate(-45)">2</text></g><g class="tick" opacity="1" transform="translate(80.00933706816056,0)"><line stroke="currentColor" y2="-6"/><text fill="currentColor" y="-9" dy="3.4641016151377544" dx="3.4641016151377544" text-anchor="start" transform="rotate(-45)">3</text></g><g class="tick" opacity="1" transform="translate(111.58730158730155,0)"><line stroke="currentColor" y2="-6"/><text fill="currentColor" y="-9" dy="3.4641016151377544" dx="3.4641016151377544" text-anchor="start" transform="rotate(-45)">4</text></g><g class="tick" opacity="1" transform="translate(143.16526610644254,0)"><line stroke="currentColor" y2="-6"/><text fill="currentColor" y="-9" dy="3.4641016151377544" dx="3.4641016151377544" text-anchor="start" transform="rotate(-45)">5</text></g><g class="tick" opacity="1" transform="translate(174.74323062558355,0)"><line stroke="currentColor" y2="-6"/><text fill="currentColor" y="-9" dy="3.4641016151377544" dx="3.4641016151377544" text-anchor="start" transform="rotate(-45)">6</text></g><g class="tick" opacity="1" transform="translate(206.32119514472453,0)"><line stroke="currentColor" y2="-6"/><text fill="currentColor" y="-9" dy="3.4641016151377544" dx="3.4641016151377544" text-anchor="start" transform="rotate(-45)">7</text></g><g class="tick" opacity="1" transform="translate(237.8991596638655,0)"><line stroke="currentColor" y2="-6"/><text fill="currentColor" y="-9" dy="3.4641016151377544" dx="3.4641016151377544" text-anchor="start" transform="rotate(-45)">8</text></g><g class="tick" opacity="1" transform="translate(269.47712418300654,0)"><line stroke="currentColor" y2="-6"/><text fill="currentColor" y="-9" dy="3.4641016151377544" dx="3.4641016151377544" text-anchor="start" transform="rotate(-45)">9</text></g><g class="tick" opacity="1" transform="translate(301.05508870214754,0)"><line stroke="currentColor" y2="-6"/><text fill="currentColor" y="-9" dy="3.4641016151377544" dx="3.4641016151377544" text-anchor="start" transform="rotate(-45)">10</text></g><g class="tick" opacity="1" transform="translate(332.63305322128855,0)"><line stroke="currentColor" y2="-6"/><text fill="currentColor" y="-9" dy="3.4641016151377544" dx="3.4641016151377544" text-anchor="start" transform="rotate(-45)">11</text></g><g class="tick" opacity="1" transform="translate(364.2110177404295,0)"><line stroke="currentColor" y2="-6"/><text fill="currentColor" y="-9" dy="3.4641016151377544" dx="3.4641016151377544" text-anchor="start" transform="rotate(-45)">12</text></g><g class="tick" opacity="1" transform="translate(395.7889822595705,0)"><line stroke="currentColor" y2="-6"/><text fill="currentColor" y="-9" dy="3.4641016151377544" dx="3.4641016151377544" text-anchor="start" transform="rotate(-45)">13</text></g><g class="tick" opacity="1" transform="translate(427.3669467787115,0)"><line stroke="currentColor" y2="-6"/><text fill="currentColor" y="-9" dy="3.4641016151377544" dx="3.4641016151377544" text-anchor="start" transform="rotate(-45)">14</text></g><g class="tick" opacity="1" transform="translate(458.94491129785246,0)"><line stroke="currentColor" y2="-6"/><text fill="currentColor" y="-9" dy="3.4641016151377544" dx="3.4641016151377544" text-anchor="start" transform="rotate(-45)">15</text></g><g class="tick" opacity="1" transform="translate(490.52287581699346,0)"><line stroke="currentColor" y2="-6"/><text fill="currentColor" y="-9" dy="3.4641016151377544" dx="3.4641016151377544" text-anchor="start" transform="rotate(-45)">16</text></g><g class="tick" opacity="1" transform="translate(522.1008403361344,0)"><line stroke="currentColor" y2="-6"/><text fill="currentColor" y="-9" dy="3.4641016151377544" dx="3.4641016151377544" text-anchor="start" transform="rotate(-45)">17</text></g><g class="tick" opacity="1" transform="translate(553.6788048552754,0)"><line stroke="currentColor" y2="-6"/><text fill="currentColor" y="-9" dy="3.4641016151377544" dx="3.4641016151377544" text-anchor="start" transform="rotate(-45)">18</text></g><g class="tick" opacity="1" transform="translate(585.2567693744164,0)"><line stroke="currentColor" y2="-6"/><text fill="currentColor" y="-9" dy="3.4641016151377544" dx="3.4641016151377544" text-anchor="start" transform="rotate(-45)">19</text></g><g class="tick" opacity="1" transform="translate(616.8347338935574,0)"><line stroke="currentColor" y2="-6"/><text fill="currentColor" y="-9" dy="3.4641016151377544" dx="3.4641016151377544" text-anchor="start" transform="rotate(-45)">20</text></g><g class="tick" opacity="1" transform="translate(648.4126984126984,0)"><line stroke="currentColor" y2="-6"/><text fill="currentColor" y="-9" dy="3.4641016151377544" dx="3.4641016151377544" text-anchor="start" transform="rotate(-45)">21</text></g><g class="tick" opacity="1" transform="translate(679.9906629318393,0)"><line stroke="currentColor" y2="-6"/><text fill="currentColor" y="-9" dy="3.4641016151377544" dx="3.4641016151377544" text-anchor="start" transform="rotate(-45)">22</text></g><g class="tick" opacity="1" transform="translate(711.5686274509803,0)"><line stroke="currentColor" y2="-6"/><text fill="currentColor" y="-9" dy="3.4641016151377544" dx="3.4641016151377544" text-anchor="start" transform="rotate(-45)">23</text></g><g class="tick" opacity="1" transform="translate(743.1465919701213,0)"><line stroke="currentColor" y2="-6"/><text fill="currentColor" y="-9" dy="3.4641016151377544" dx="3.4641016151377544" text-anchor="start" transform="rotate(-45)">0</text></g></g><g fill="none" font-size="10" font-family="sans-serif" text-anchor="end"><path class="domain" stroke="currentColor" d="M0,0V221.66666666666669"/><g class="tick" opacity="1" transform="translate(0,16.739533651298373)"><line stroke="currentColor" x2="-6"/><text fill="currentColor" x="-9" dy="0.32em">Monday</text></g><g class="tick" opacity="1" transform="translate(0,48.104133545310034)"><line stroke="currentColor" x2="-6"/><text fill="currentColor" x="-9" dy="0.32em">Tuesday</text></g><g class="tick" opacity="1" transform="translate(0,79.46873343932168)"><line stroke="currentColor" x2="-6"/><text fill="currentColor" x="-9" dy="0.32em">Wednesday</text></g><g class="tick" opacity="1" transform="translate(0,110.83333333333334)"><line stroke="currentColor" x2="-6"/><text fill="currentColor" x="-9" dy="0.32em">Thursday</text></g><g class="tick" opacity="1" transform="translate(0,142.197933227345)"><line stroke="currentColor" x2="-6"/><text fill="currentColor" x="-9" dy="0.32em">Friday</text></g><g class="tick" opacity="1" transform="translate(0,173.56253312135667)"><line stroke="currentColor" x2="-6"/><text fill="currentColor" x="-9" dy="0.32em">Saturday</text></g><g class="tick" opacity="1" transform="translate(0,204.9271330153683)"><line stroke="currentColor" x2="-6"/><text fill="currentColor" x="-9" dy="0.32em">Sunday</text></g></g><text dx="-9" dy="-9" style="text-anchor: end; font-family: Arial, sans-serif; font-size: 12px; fill: rgb(123, 123, 123); font-weight: bold;">dia de semana</text><text x="543.765114732455" y="543.765114732455" dx="3.4641016151377544" dy="-3.4641016151377544" transform="rotate(-45)" style="text-anchor: start; font-family: Arial, sans-serif; font-size: 12px; fill: rgb(123, 123, 123); font-weight: bold;">Hora</text><rect x="16.962184873949546" y="16.947800741918407" rx="0" ry="0" width="0" height="0" style="fill: rgb(247, 251, 255);"/><rect x="48.54014939309054" y="48.31240063593007" rx="0" ry="0" width="0" height="0" style="fill: rgb(247, 251, 255);"/><rect x="80.11811391223152" y="79.67700052994171" rx="0" ry="0" width="0" height="0" style="fill: rgb(247, 251, 255);"/><rect x="111.69607843137251" y="111.04160042395337" rx="0" ry="0" width="0" height="0" style="fill: rgb(247, 251, 255);"/><rect x="143.27404295051352" y="142.40620031796504" rx="0" ry="0" width="0" height="0" style="fill: rgb(247, 251, 255);"/><rect x="174.85200746965452" y="173.7708002119767" rx="0" ry="0" width="0" height="0" style="fill: rgb(247, 251, 255);"/><rect x="206.4299719887955" y="205.13540010598834" rx="0" ry="0" width="0" height="0" style="fill: rgb(247, 251, 255);"/><rect x="238.00793650793648" y="16.947800741918407" rx="0" ry="0" width="0" height="0" style="fill: rgb(247, 251, 255);"/><rect x="269.58590102707745" y="48.31240063593007" rx="0" ry="0" width="0" height="0" style="fill: rgb(247, 251, 255);"/><rect x="301.16386554621846" y="79.67700052994171" rx="0" ry="0" width="0" height="0" style="fill: rgb(247, 251, 255);"/><rect x="332.74183006535947" y="111.04160042395337" rx="0" ry="0" width="0" height="0" style="fill: rgb(247, 251, 255);"/><rect x="364.3197945845004" y="142.40620031796504" rx="0" ry="0" width="0" height="0" style="fill: rgb(247, 251, 255);"/><rect x="387.333730110662" y="165.20677121899723" rx="0" ry="0" width="17.1280579859589" height="17.1280579859589" style="fill: rgb(171, 207, 230);"/><rect x="427.4757236227824" y="205.13540010598834" rx="0" ry="0" width="0" height="0" style="fill: rgb(247, 251, 255);"/><rect x="459.0536881419234" y="16.947800741918407" rx="0" ry="0" width="0" height="0" style="fill: rgb(247, 251, 255);"/><rect x="490.6316526610644" y="48.31240063593007" rx="0" ry="0" width="0" height="0" style="fill: rgb(247, 251, 255);"/><rect x="522.2096171802054" y="79.67700052994171" rx="0" ry="0" width="0" height="0" style="fill: rgb(247, 251, 255);"/><rect x="553.7875816993464" y="111.04160042395337" rx="0" ry="0" width="0" height="0" style="fill: rgb(247, 251, 255);"/><rect x="585.3655462184875" y="142.40620031796504" rx="0" ry="0" width="0" height="0" style="fill: rgb(247, 251, 255);"/><rect x="604.8321447872005" y="161.65943426154877" rx="0" ry="0" width="24.222731900855877" height="24.222731900855877" style="fill: rgb(55, 135, 192);"/><rect x="648.5214752567695" y="173.7708002119767" rx="0" ry="0" width="0" height="0" style="fill: rgb(247, 251, 255);"/><rect x="667.9880738254824" y="4.836434791490467" rx="0" ry="0" width="24.222731900855877" height="24.222731900855877" style="fill: rgb(55, 135, 192);"/><rect x="696.844070961718" y="33.47906730259673" rx="0" ry="0" width="29.666666666666668" height="29.666666666666668" style="fill: rgb(8, 48, 107);"/><rect x="743.2553688141924" y="79.67700052994171" rx="0" ry="0" width="0" height="0" style="fill: rgb(247, 251, 255);"/><rect x="383.7863931532135" y="98.93023447352543" rx="0" ry="0" width="24.222731900855877" height="24.222731900855877" style="fill: rgb(55, 135, 192);"/><rect x="387.333730110662" y="39.748371642950616" rx="0" ry="0" width="17.1280579859589" height="17.1280579859589" style="fill: rgb(171, 207, 230);"/><rect x="387.333730110662" y="133.8421713249856" rx="0" ry="0" width="17.1280579859589" height="17.1280579859589" style="fill: rgb(171, 207, 230);"/><rect x="576.801517225508" y="39.748371642950616" rx="0" ry="0" width="17.1280579859589" height="17.1280579859589" style="fill: rgb(171, 207, 230);"/><rect x="639.95744626379" y="8.383771748938955" rx="0" ry="0" width="17.1280579859589" height="17.1280579859589" style="fill: rgb(171, 207, 230);"/><rect x="450.48965914894393" y="102.47757143097392" rx="0" ry="0" width="17.1280579859589" height="17.1280579859589" style="fill: rgb(171, 207, 230);"/><rect x="446.94232219149546" y="193.0240341555604" rx="0" ry="0" width="24.222731900855877" height="24.222731900855877" style="fill: rgb(55, 135, 192);"/><rect x="703.1133753020719" y="71.11297153696226" rx="0" ry="0" width="17.1280579859589" height="17.1280579859589" style="fill: rgb(171, 207, 230);"/><rect x="639.95744626379" y="196.57137111300887" rx="0" ry="0" width="17.1280579859589" height="17.1280579859589" style="fill: rgb(171, 207, 230);"/><rect x="667.9880738254824" y="98.93023447352543" rx="0" ry="0" width="24.222731900855877" height="24.222731900855877" style="fill: rgb(55, 135, 192);"/><rect x="671.5354107829309" y="71.11297153696226" rx="0" ry="0" width="17.1280579859589" height="17.1280579859589" style="fill: rgb(171, 207, 230);"/><rect x="355.75576559152097" y="196.57137111300887" rx="0" ry="0" width="17.1280579859589" height="17.1280579859589" style="fill: rgb(171, 207, 230);"/><rect x="665.266106442577" y="33.47906730259673" rx="0" ry="0" width="29.666666666666668" height="29.666666666666668" style="fill: rgb(8, 48, 107);"/><rect x="703.1133753020719" y="102.47757143097392" rx="0" ry="0" width="17.1280579859589" height="17.1280579859589" style="fill: rgb(171, 207, 230);"/><rect x="734.6913398212129" y="102.47757143097392" rx="0" ry="0" width="17.1280579859589" height="17.1280579859589" style="fill: rgb(171, 207, 230);"/><rect x="324.17780107238" y="196.57137111300887" rx="0" ry="0" width="17.1280579859589" height="17.1280579859589" style="fill: rgb(171, 207, 230);"/><g id="labels"><g transform="translate(16.962184873949546,16.947800741918407)"><text x="0" y="0" text-anchor="middle" dominant-baseline="text-before-edge" transform="translate(0,0)"/></g><g transform="translate(48.54014939309054,48.31240063593007)"><text x="0" y="0" text-anchor="middle" dominant-baseline="text-before-edge" transform="translate(0,0)"/></g><g transform="translate(80.11811391223152,79.67700052994171)"><text x="0" y="0" text-anchor="middle" dominant-baseline="text-before-edge" transform="translate(0,0)"/></g><g transform="translate(111.69607843137251,111.04160042395337)"><text x="0" y="0" text-anchor="middle" dominant-baseline="text-before-edge" transform="translate(0,0)"/></g><g transform="translate(143.27404295051352,142.40620031796504)"><text x="0" y="0" text-anchor="middle" dominant-baseline="text-before-edge" transform="translate(0,0)"/></g><g transform="translate(174.85200746965452,173.7708002119767)"><text x="0" y="0" text-anchor="middle" dominant-baseline="text-before-edge" transform="translate(0,0)"/></g><g transform="translate(206.4299719887955,205.13540010598834)"><text x="0" y="0" text-anchor="middle" dominant-baseline="text-before-edge" transform="translate(0,0)"/></g><g transform="translate(238.00793650793648,16.947800741918407)"><text x="0" y="0" text-anchor="middle" dominant-baseline="text-before-edge" transform="translate(0,0)"/></g><g transform="translate(269.58590102707745,48.31240063593007)"><text x="0" y="0" text-anchor="middle" dominant-baseline="text-before-edge" transform="translate(0,0)"/></g><g transform="translate(301.16386554621846,79.67700052994171)"><text x="0" y="0" text-anchor="middle" dominant-baseline="text-before-edge" transform="translate(0,0)"/></g><g transform="translate(332.74183006535947,111.04160042395337)"><text x="0" y="0" text-anchor="middle" dominant-baseline="text-before-edge" transform="translate(0,0)"/></g><g transform="translate(364.3197945845004,142.40620031796504)"><text x="0" y="0" text-anchor="middle" dominant-baseline="text-before-edge" transform="translate(0,0)"/></g><g transform="translate(395.8977591036414,173.7708002119767)"><text x="0" y="0" text-anchor="middle" dominant-baseline="text-before-edge" transform="translate(0,0)"/></g><g transform="translate(427.4757236227824,205.13540010598834)"><text x="0" y="0" text-anchor="middle" dominant-baseline="text-before-edge" transform="translate(0,0)"/></g><g transform="translate(459.0536881419234,16.947800741918407)"><text x="0" y="0" text-anchor="middle" dominant-baseline="text-before-edge" transform="translate(0,0)"/></g><g transform="translate(490.6316526610644,48.31240063593007)"><text x="0" y="0" text-anchor="middle" dominant-baseline="text-before-edge" transform="translate(0,0)"/></g><g transform="translate(522.2096171802054,79.67700052994171)"><text x="0" y="0" text-anchor="middle" dominant-baseline="text-before-edge" transform="translate(0,0)"/></g><g transform="translate(553.7875816993464,111.04160042395337)"><text x="0" y="0" text-anchor="middle" dominant-baseline="text-before-edge" transform="translate(0,0)"/></g><g transform="translate(585.3655462184875,142.40620031796504)"><text x="0" y="0" text-anchor="middle" dominant-baseline="text-before-edge" transform="translate(0,0)"/></g><g transform="translate(616.9435107376285,173.7708002119767)"><text x="0" y="0" text-anchor="middle" dominant-baseline="text-before-edge" transform="translate(0,0)"/></g><g transform="translate(648.5214752567695,173.7708002119767)"><text x="0" y="0" text-anchor="middle" dominant-baseline="text-before-edge" transform="translate(0,0)"/></g><g transform="translate(680.0994397759104,16.947800741918407)"><text x="0" y="0" text-anchor="middle" dominant-baseline="text-before-edge" transform="translate(0,0)"/></g><g transform="translate(711.6774042950514,48.31240063593007)"><text x="0" y="0" text-anchor="middle" dominant-baseline="text-before-edge" transform="translate(0,0)"/></g><g transform="translate(743.2553688141924,79.67700052994171)"><text x="0" y="0" text-anchor="middle" dominant-baseline="text-before-edge" transform="translate(0,0)"/></g><g transform="translate(395.8977591036414,111.04160042395337)"><text x="0" y="0" text-anchor="middle" dominant-baseline="text-before-edge" transform="translate(0,0)"/></g><g transform="translate(395.8977591036414,48.31240063593007)"><text x="0" y="0" text-anchor="middle" dominant-baseline="text-before-edge" transform="translate(0,0)"/></g><g transform="translate(395.8977591036414,142.40620031796504)"><text x="0" y="0" text-anchor="middle" dominant-baseline="text-before-edge" transform="translate(0,0)"/></g><g transform="translate(585.3655462184875,48.31240063593007)"><text x="0" y="0" text-anchor="middle" dominant-baseline="text-before-edge" transform="translate(0,0)"/></g><g transform="translate(648.5214752567695,16.947800741918407)"><text x="0" y="0" text-anchor="middle" dominant-baseline="text-before-edge" transform="translate(0,0)"/></g><g transform="translate(459.0536881419234,111.04160042395337)"><text x="0" y="0" text-anchor="middle" dominant-baseline="text-before-edge" transform="translate(0,0)"/></g><g transform="translate(459.0536881419234,205.13540010598834)"><text x="0" y="0" text-anchor="middle" dominant-baseline="text-before-edge" transform="translate(0,0)"/></g><g transform="translate(711.6774042950514,79.67700052994171)"><text x="0" y="0" text-anchor="middle" dominant-baseline="text-before-edge" transform="translate(0,0)"/></g><g transform="translate(648.5214752567695,205.13540010598834)"><text x="0" y="0" text-anchor="middle" dominant-baseline="text-before-edge" transform="translate(0,0)"/></g><g transform="translate(680.0994397759104,111.04160042395337)"><text x="0" y="0" text-anchor="middle" dominant-baseline="text-before-edge" transform="translate(0,0)"/></g><g transform="translate(680.0994397759104,79.67700052994171)"><text x="0" y="0" text-anchor="middle" dominant-baseline="text-before-edge" transform="translate(0,0)"/></g><g transform="translate(364.3197945845004,205.13540010598834)"><text x="0" y="0" text-anchor="middle" dominant-baseline="text-before-edge" transform="translate(0,0)"/></g><g transform="translate(680.0994397759104,48.31240063593007)"><text x="0" y="0" text-anchor="middle" dominant-baseline="text-before-edge" transform="translate(0,0)"/></g><g transform="translate(711.6774042950514,111.04160042395337)"><text x="0" y="0" text-anchor="middle" dominant-baseline="text-before-edge" transform="translate(0,0)"/></g><g transform="translate(743.2553688141924,111.04160042395337)"><text x="0" y="0" text-anchor="middle" dominant-baseline="text-before-edge" transform="translate(0,0)"/></g><g transform="translate(332.74183006535947,205.13540010598834)"><text x="0" y="0" text-anchor="middle" dominant-baseline="text-before-edge" transform="translate(0,0)"/></g></g></g></svg>
