<svg xmlns="http://www.w3.org/2000/svg" width="805" height="600"><rect width="805" height="600" x="0" y="0" fill="#FFFFFF" id="background"/><g transform="translate(402.5,300)" id="viz"><path fill="#9467bd" display="" d="M0.9999920729479248,-287.99826391118063A288,288,0,0,1,287.52175116700465,-16.590437181071096L144.72976332396834,-8.848480558158538A145,145,0,0,0,0.999992072947915,-144.99655173780528Z"><title>Thursday</title></path><path fill="#8c564b" display="" d="M287.6300281258516,-14.593386184221634A288,288,0,0,1,-30.14395952530519,286.4181239100221L-14.682754772176805,144.25469390040698A145,145,0,0,0,144.83804028281526,-6.8514295613090725Z"><title>Tuesday</title></path><path fill="#1f77b4" display="" d="M-32.13221967844716,286.2018875873044A288,288,0,0,1,-91.01064068425902,273.24176708958805L-45.34997517523527,137.72574106391855A145,145,0,0,0,-16.671014925318776,144.0384575776893Z"><title>Friday</title></path><path fill="#ff7f0e" display="" d="M-92.90593200243252,272.60316909155586A288,288,0,0,1,-237.81181191076553,162.44858299079948L-119.45086802726452,82.19787179442686A145,145,0,0,0,-47.245266493408764,137.08714306588632Z"><title>Monday</title></path><path fill="#d62728" display="" d="M-238.93417714437214,160.7932181167533A288,288,0,0,1,-254.91833967267408,-134.0173126820828L-128.57460459109353,-67.03410366555185A145,145,0,0,0,-120.57323326087105,80.54250692038075Z"><title>Sunday</title></path><path fill="#e377c2" display="" d="M-253.98153021747075,-135.78432276368287A288,288,0,0,1,-175.0852100946499,-228.66825141700866L-88.54426115876284,-114.82557997175022A145,145,0,0,0,-127.63779513589019,-68.80111374715185Z"><title>Wednesday</title></path><path fill="#2ca02c" display="" d="M-173.49303658458103,-229.87859025290118A288,288,0,0,1,-0.9999920729477042,-287.99826391118063L-0.9999920729477718,-144.99655173780528A145,145,0,0,0,-86.95208764869402,-116.03591880764264Z"><title>Saturday</title></path></g><g id="labels" transform="translate(402.5,300)" text-anchor="middle"><text transform="rotate(90) translate(72.5,0) rotate(180)"><tspan x="0" y="4" style="font-family: Arial, sans-serif; font-size: 10px; fill: black; font-weight: normal;"/></text><text transform="rotate(-46.55172413793103) translate(217.5,0) rotate(0)"><tspan x="0" y="-2" style="font-family: Arial, sans-serif; font-size: 10px; fill: black; font-weight: bold;">7</tspan><tspan x="0" y="10" style="font-family: Arial, sans-serif; font-size: 10px; fill: black; font-weight: normal;">Thursday</tspan></text><text transform="rotate(46.551724137931046) translate(217.5,0) rotate(0)"><tspan x="0" y="-2" style="font-family: Arial, sans-serif; font-size: 10px; fill: black; font-weight: bold;">8</tspan><tspan x="0" y="10" style="font-family: Arial, sans-serif; font-size: 10px; fill: black; font-weight: normal;">Tuesday</tspan></text><text transform="rotate(102.41379310344828) translate(217.5,0) rotate(180)"><tspan x="0" y="-2" style="font-family: Arial, sans-serif; font-size: 10px; fill: black; font-weight: bold;">1</tspan><tspan x="0" y="10" style="font-family: Arial, sans-serif; font-size: 10px; fill: black; font-weight: normal;">Friday</tspan></text><text transform="rotate(127.24137931034485) translate(217.5,0) rotate(180)"><tspan x="0" y="-2" style="font-family: Arial, sans-serif; font-size: 10px; fill: black; font-weight: bold;">3</tspan><tspan x="0" y="10" style="font-family: Arial, sans-serif; font-size: 10px; fill: black; font-weight: normal;">Monday</tspan></text><text transform="rotate(176.8965517241379) translate(217.5,0) rotate(180)"><tspan x="0" y="-2" style="font-family: Arial, sans-serif; font-size: 10px; fill: black; font-weight: bold;">5</tspan><tspan x="0" y="10" style="font-family: Arial, sans-serif; font-size: 10px; fill: black; font-weight: normal;">Sunday</tspan></text><text transform="rotate(220.34482758620692) translate(217.5,0) rotate(180)"><tspan x="0" y="-2" style="font-family: Arial, sans-serif; font-size: 10px; fill: black; font-weight: bold;">2</tspan><tspan x="0" y="10" style="font-family: Arial, sans-serif; font-size: 10px; fill: black; font-weight: normal;">Wednesday</tspan></text><text transform="rotate(251.37931034482762) translate(217.5,0) rotate(180)"><tspan x="0" y="-2" style="font-family: Arial, sans-serif; font-size: 10px; fill: black; font-weight: bold;">3</tspan><tspan x="0" y="10" style="font-family: Arial, sans-serif; font-size: 10px; fill: black; font-weight: normal;">Saturday</tspan></text></g></svg>