<svg xmlns="http://www.w3.org/2000/svg" width="700" height="500"><rect width="700" height="500" x="0" y="0" fill="#FFFFFF" id="background"/><g id="viz"><g transform="translate(0,0)"><g transform="translate(10,20)"><g><path fill="rgb(245, 199, 43)" d="M0,460C11.724137931034482,460,11.724137931034482,459.5818181818182,23.448275862068964,459.5818181818182C35.172413793103445,459.5818181818182,35.172413793103445,460,46.89655172413793,460C58.62068965517241,460,58.62068965517241,460,70.34482758620689,460C82.06896551724137,460,82.06896551724137,460,93.79310344827586,460C117.24137931034483,460,117.24137931034483,460,140.68965517241378,460C152.41379310344826,460,152.41379310344826,460,164.13793103448276,460C175.86206896551724,460,175.86206896551724,446.8454545454546,187.58620689655172,446.8454545454546C199.31034482758622,446.8454545454546,199.31034482758622,447.09999999999997,211.0344827586207,447.09999999999997C222.75862068965517,447.09999999999997,222.75862068965517,448.7272727272727,234.48275862068968,448.7272727272727C269.65517241379314,448.7272727272727,269.65517241379314,442.24545454545455,304.82758620689657,442.24545454545455C316.55172413793105,442.24545454545455,316.55172413793105,444.29090909090905,328.2758620689655,444.29090909090905C340,444.29090909090905,340,433.29999999999995,351.72413793103453,433.29999999999995C363.44827586206895,433.29999999999995,363.44827586206895,439.5272727272727,375.17241379310343,439.5272727272727C386.8965517241379,439.5272727272727,386.8965517241379,440.3636363636364,398.6206896551724,440.3636363636364C410.34482758620686,440.3636363636364,410.34482758620686,439.06363636363636,422.0689655172414,439.06363636363636C433.7931034482759,439.06363636363636,433.7931034482759,444.7090909090909,445.51724137931035,444.7090909090909C457.2413793103449,444.7090909090909,457.2413793103449,453.0272727272727,468.96551724137936,453.0272727272727C480.68965517241384,453.0272727272727,480.68965517241384,446.0545454545454,492.41379310344826,446.0545454545454C504.13793103448273,446.0545454545454,504.13793103448273,448.26363636363635,515.8620689655172,448.26363636363635C527.5862068965517,448.26363636363635,527.5862068965517,459.79090909090905,539.3103448275863,459.79090909090905C551.0344827586207,459.79090909090905,551.0344827586207,446.0090909090909,562.7586206896551,446.0090909090909C574.4827586206895,446.0090909090909,574.4827586206895,459.79090909090905,586.2068965517241,459.79090909090905C597.9310344827586,459.79090909090905,597.9310344827586,459.5818181818182,609.6551724137931,459.5818181818182C621.3793103448277,459.5818181818182,621.3793103448277,459.79090909090905,633.1034482758621,459.79090909090905C644.8275862068965,459.79090909090905,644.8275862068965,459.1636363636364,656.551724137931,459.1636363636364C668.2758620689656,459.1636363636364,668.2758620689656,458.53636363636366,680,458.53636363636366L680,460C668.2758620689656,460,668.2758620689656,460,656.551724137931,460C644.8275862068965,460,644.8275862068965,460,633.1034482758621,460C621.3793103448277,460,621.3793103448277,460,609.6551724137931,460C597.9310344827586,460,597.9310344827586,460,586.2068965517241,460C574.4827586206895,460,574.4827586206895,449.3545454545454,562.7586206896551,449.3545454545454C551.0344827586207,449.3545454545454,551.0344827586207,460,539.3103448275863,460C527.5862068965517,460,527.5862068965517,451.6090909090909,515.8620689655172,451.6090909090909C504.13793103448273,451.6090909090909,504.13793103448273,449.4,492.41379310344826,449.4C480.68965517241384,449.4,480.68965517241384,456.3727272727273,468.96551724137936,456.3727272727273C457.2413793103449,456.3727272727273,457.2413793103449,450.77272727272725,445.51724137931035,450.77272727272725C433.7931034482759,450.77272727272725,433.7931034482759,444.91818181818184,422.0689655172414,444.91818181818184C410.34482758620686,444.91818181818184,410.34482758620686,446.8454545454546,398.6206896551724,446.8454545454546C386.8965517241379,446.8454545454546,386.8965517241379,445.1727272727273,375.17241379310343,445.1727272727273C363.44827586206895,445.1727272727273,363.44827586206895,439.7818181818182,351.72413793103453,439.7818181818182C340,439.7818181818182,340,447.42727272727274,328.2758620689655,447.42727272727274C316.55172413793105,447.42727272727274,316.55172413793105,446.6363636363636,304.82758620689657,446.6363636363636C269.65517241379314,446.6363636363636,269.65517241379314,452.7,234.48275862068968,452.7C222.75862068965517,452.7,222.75862068965517,449.4,211.0344827586207,449.4C199.31034482758622,449.4,199.31034482758622,449.9818181818182,187.58620689655172,449.9818181818182C175.86206896551724,449.9818181818182,175.86206896551724,460,164.13793103448276,460C152.41379310344826,460,152.41379310344826,460,140.68965517241378,460C117.24137931034483,460,117.24137931034483,460,93.79310344827586,460C82.06896551724137,460,82.06896551724137,460,70.34482758620689,460C58.62068965517241,460,58.62068965517241,460,46.89655172413793,460C35.172413793103445,460,35.172413793103445,460,23.448275862068964,460C11.724137931034482,460,11.724137931034482,460,0,460Z"><title>South Asia</title></path><path fill="rgb(55, 237, 159)" d="M0,459C11.724137931034482,459,11.724137931034482,460,23.448275862068964,460C35.172413793103445,460,35.172413793103445,460,46.89655172413793,460C58.62068965517241,460,58.62068965517241,460,70.34482758620689,460C82.06896551724137,460,82.06896551724137,460,93.79310344827586,460C117.24137931034483,460,117.24137931034483,460,140.68965517241378,460C152.41379310344826,460,152.41379310344826,459,164.13793103448276,459C175.86206896551724,459,175.86206896551724,457.95454545454544,187.58620689655172,457.95454545454544C199.31034482758622,457.95454545454544,199.31034482758622,460,211.0344827586207,460C222.75862068965517,460,222.75862068965517,453.7,234.48275862068968,453.7C269.65517241379314,453.7,269.65517241379314,455.7,304.82758620689657,455.7C316.55172413793105,455.7,316.55172413793105,459.79090909090905,328.2758620689655,459.79090909090905C340,459.79090909090905,340,460,351.72413793103453,460C363.44827586206895,460,363.44827586206895,458.1636363636364,375.17241379310343,458.1636363636364C386.8965517241379,458.1636363636364,386.8965517241379,458.3727272727273,398.6206896551724,458.3727272727273C410.34482758620686,458.3727272727273,410.34482758620686,459.5818181818182,422.0689655172414,459.5818181818182C433.7931034482759,459.5818181818182,433.7931034482759,458.79090909090905,445.51724137931035,458.79090909090905C457.2413793103449,458.79090909090905,457.2413793103449,460,468.96551724137936,460C480.68965517241384,460,480.68965517241384,460,492.41379310344826,460C504.13793103448273,460,504.13793103448273,455.90909090909093,515.8620689655172,455.90909090909093C527.5862068965517,455.90909090909093,527.5862068965517,458.1636363636364,539.3103448275863,458.1636363636364C551.0344827586207,458.1636363636364,551.0344827586207,456.95454545454544,562.7586206896551,456.95454545454544C574.4827586206895,456.95454545454544,574.4827586206895,456.3272727272727,586.2068965517241,456.3272727272727C597.9310344827586,456.3272727272727,597.9310344827586,456.4909090909091,609.6551724137931,456.4909090909091C621.3793103448277,456.4909090909091,621.3793103448277,457.11818181818177,633.1034482758621,457.11818181818177C644.8275862068965,457.11818181818177,644.8275862068965,456.90909090909093,656.551724137931,456.90909090909093C668.2758620689656,456.90909090909093,668.2758620689656,455.6545454545454,680,455.6545454545454L680,457.53636363636366C668.2758620689656,457.53636363636366,668.2758620689656,458.1636363636364,656.551724137931,458.1636363636364C644.8275862068965,458.1636363636364,644.8275862068965,458.79090909090905,633.1034482758621,458.79090909090905C621.3793103448277,458.79090909090905,621.3793103448277,458.5818181818182,609.6551724137931,458.5818181818182C597.9310344827586,458.5818181818182,597.9310344827586,457.5818181818182,586.2068965517241,457.5818181818182C574.4827586206895,457.5818181818182,574.4827586206895,458,562.7586206896551,458C551.0344827586207,458,551.0344827586207,458.79090909090905,539.3103448275863,458.79090909090905C527.5862068965517,458.79090909090905,527.5862068965517,456.95454545454544,515.8620689655172,456.95454545454544C504.13793103448273,456.95454545454544,504.13793103448273,460,492.41379310344826,460C480.68965517241384,460,480.68965517241384,460,468.96551724137936,460C457.2413793103449,460,457.2413793103449,459,445.51724137931035,459C433.7931034482759,459,433.7931034482759,460,422.0689655172414,460C410.34482758620686,460,410.34482758620686,458.79090909090905,398.6206896551724,458.79090909090905C386.8965517241379,458.79090909090905,386.8965517241379,458.79090909090905,375.17241379310343,458.79090909090905C363.44827586206895,458.79090909090905,363.44827586206895,460,351.72413793103453,460C340,460,340,460,328.2758620689655,460C316.55172413793105,460,316.55172413793105,456.74545454545455,304.82758620689657,456.74545454545455C269.65517241379314,456.74545454545455,269.65517241379314,454.74545454545455,234.48275862068968,454.74545454545455C222.75862068965517,454.74545454545455,222.75862068965517,460,211.0344827586207,460C199.31034482758622,460,199.31034482758622,458.79090909090905,187.58620689655172,458.79090909090905C175.86206896551724,458.79090909090905,175.86206896551724,459,164.13793103448276,459C152.41379310344826,459,152.41379310344826,460,140.68965517241378,460C117.24137931034483,460,117.24137931034483,460,93.79310344827586,460C82.06896551724137,460,82.06896551724137,460,70.34482758620689,460C58.62068965517241,460,58.62068965517241,460,46.89655172413793,460C35.172413793103445,460,35.172413793103445,460,23.448275862068964,460C11.724137931034482,460,11.724137931034482,459,0,459Z"><title>North Africa</title></path><path fill="rgb(38, 208, 205)" d="M0,459C11.724137931034482,459,11.724137931034482,458.1636363636364,23.448275862068964,458.1636363636364C35.172413793103445,458.1636363636364,35.172413793103445,453.2818181818182,46.89655172413793,453.2818181818182C58.62068965517241,453.2818181818182,58.62068965517241,460,70.34482758620689,460C82.06896551724137,460,82.06896551724137,460,93.79310344827586,460C117.24137931034483,460,117.24137931034483,456.90909090909093,140.68965517241378,456.90909090909093C152.41379310344826,456.90909090909093,152.41379310344826,442.5,164.13793103448276,442.5C175.86206896551724,442.5,175.86206896551724,421.8454545454545,187.58620689655172,421.8454545454545C199.31034482758622,421.8454545454545,199.31034482758622,452.8636363636364,211.0344827586207,452.8636363636364C222.75862068965517,452.8636363636364,222.75862068965517,436.6909090909091,234.48275862068968,436.6909090909091C269.65517241379314,436.6909090909091,269.65517241379314,431.6272727272727,304.82758620689657,431.6272727272727C316.55172413793105,431.6272727272727,316.55172413793105,429.32727272727277,328.2758620689655,429.32727272727277C340,429.32727272727277,340,447.21818181818185,351.72413793103453,447.21818181818185C363.44827586206895,447.21818181818185,363.44827586206895,446.1727272727273,375.17241379310343,446.1727272727273C386.8965517241379,446.1727272727273,386.8965517241379,447.8454545454546,398.6206896551724,447.8454545454546C410.34482758620686,447.8454545454546,410.34482758620686,445.91818181818184,422.0689655172414,445.91818181818184C433.7931034482759,445.91818181818184,433.7931034482759,437.43636363636364,445.51724137931035,437.43636363636364C457.2413793103449,437.43636363636364,457.2413793103449,444.91818181818184,468.96551724137936,444.91818181818184C480.68965517241384,444.91818181818184,480.68965517241384,429.6272727272727,492.41379310344826,429.6272727272727C504.13793103448273,429.6272727272727,504.13793103448273,435.3454545454546,515.8620689655172,435.3454545454546C527.5862068965517,435.3454545454546,527.5862068965517,423.2636363636364,539.3103448275863,423.2636363636364C551.0344827586207,423.2636363636364,551.0344827586207,399.3090909090909,562.7586206896551,399.3090909090909C574.4827586206895,399.3090909090909,574.4827586206895,339.55454545454546,586.2068965517241,339.55454545454546C597.9310344827586,339.55454545454546,597.9310344827586,274.31818181818187,609.6551724137931,274.31818181818187C621.3793103448277,274.31818181818187,621.3793103448277,331.77272727272725,633.1034482758621,331.77272727272725C644.8275862068965,331.77272727272725,644.8275862068965,281.2181818181818,656.551724137931,281.2181818181818C668.2758620689656,281.2181818181818,668.2758620689656,362.25454545454545,680,362.25454545454545L680,398.6363636363636C668.2758620689656,398.6363636363636,668.2758620689656,325.54545454545456,656.551724137931,325.54545454545456C644.8275862068965,325.54545454545456,644.8275862068965,372.3363636363636,633.1034482758621,372.3363636363636C621.3793103448277,372.3363636363636,621.3793103448277,315.5090909090909,609.6551724137931,315.5090909090909C597.9310344827586,315.5090909090909,597.9310344827586,374.6818181818182,586.2068965517241,374.6818181818182C574.4827586206895,374.6818181818182,574.4827586206895,419.5909090909091,562.7586206896551,419.5909090909091C551.0344827586207,419.5909090909091,551.0344827586207,437.06363636363636,539.3103448275863,437.06363636363636C527.5862068965517,437.06363636363636,527.5862068965517,447.26363636363635,515.8620689655172,447.26363636363635C504.13793103448273,447.26363636363635,504.13793103448273,439.24545454545455,492.41379310344826,439.24545454545455C480.68965517241384,439.24545454545455,480.68965517241384,452.0272727272727,468.96551724137936,452.0272727272727C457.2413793103449,452.0272727272727,457.2413793103449,443.7090909090909,445.51724137931035,443.7090909090909C433.7931034482759,443.7090909090909,433.7931034482759,451.56363636363636,422.0689655172414,451.56363636363636C410.34482758620686,451.56363636363636,410.34482758620686,452.8636363636364,398.6206896551724,452.8636363636364C386.8965517241379,452.8636363636364,386.8965517241379,451.1909090909091,375.17241379310343,451.1909090909091C363.44827586206895,451.1909090909091,363.44827586206895,452.0272727272727,351.72413793103453,452.0272727272727C340,452.0272727272727,340,437.4818181818182,328.2758620689655,437.4818181818182C316.55172413793105,437.4818181818182,316.55172413793105,441.24545454545455,304.82758620689657,441.24545454545455C269.65517241379314,441.24545454545455,269.65517241379314,442.3363636363636,234.48275862068968,442.3363636363636C222.75862068965517,442.3363636363636,222.75862068965517,454.3272727272727,211.0344827586207,454.3272727272727C199.31034482758622,454.3272727272727,199.31034482758622,433.55454545454546,187.58620689655172,433.55454545454546C175.86206896551724,433.55454545454546,175.86206896551724,450.8636363636364,164.13793103448276,450.8636363636364C152.41379310344826,450.8636363636364,152.41379310344826,458.3727272727273,140.68965517241378,458.3727272727273C117.24137931034483,458.3727272727273,117.24137931034483,460,93.79310344827586,460C82.06896551724137,460,82.06896551724137,460,70.34482758620689,460C58.62068965517241,460,58.62068965517241,455.1636363636364,46.89655172413793,455.1636363636364C35.172413793103445,455.1636363636364,35.172413793103445,458.5818181818182,23.448275862068964,458.5818181818182C11.724137931034482,458.5818181818182,11.724137931034482,459,0,459Z"><title>Latin America and the Caribbean</title></path><path fill="rgb(168, 22, 4)" d="M0,458C11.724137931034482,458,11.724137931034482,460,23.448275862068964,460C35.172413793103445,460,35.172413793103445,460,46.89655172413793,460C58.62068965517241,460,58.62068965517241,460,70.34482758620689,460C82.06896551724137,460,82.06896551724137,459,93.79310344827586,459C117.24137931034483,459,117.24137931034483,460,140.68965517241378,460C152.41379310344826,460,152.41379310344826,458,164.13793103448276,458C175.86206896551724,458,175.86206896551724,460,187.58620689655172,460C199.31034482758622,460,199.31034482758622,459,211.0344827586207,459C222.75862068965517,459,222.75862068965517,457.1636363636364,234.48275862068968,457.1636363636364C269.65517241379314,457.1636363636364,269.65517241379314,451.9818181818182,304.82758620689657,451.9818181818182C316.55172413793105,451.9818181818182,316.55172413793105,456.2818181818182,328.2758620689655,456.2818181818182C340,456.2818181818182,340,453.0272727272727,351.72413793103453,453.0272727272727C363.44827586206895,453.0272727272727,363.44827586206895,452.1909090909091,375.17241379310343,452.1909090909091C386.8965517241379,452.1909090909091,386.8965517241379,453.8636363636364,398.6206896551724,453.8636363636364C410.34482758620686,453.8636363636364,410.34482758620686,457.11818181818177,422.0689655172414,457.11818181818177C433.7931034482759,457.11818181818177,433.7931034482759,456.74545454545455,445.51724137931035,456.74545454545455C457.2413793103449,456.74545454545455,457.2413793103449,457.3727272727273,468.96551724137936,457.3727272727273C480.68965517241384,457.3727272727273,480.68965517241384,456.79090909090905,492.41379310344826,456.79090909090905C504.13793103448273,456.79090909090905,504.13793103448273,457.95454545454544,515.8620689655172,457.95454545454544C527.5862068965517,457.95454545454544,527.5862068965517,456.53636363636366,539.3103448275863,456.53636363636366C551.0344827586207,456.53636363636366,551.0344827586207,450.3545454545454,562.7586206896551,450.3545454545454C574.4827586206895,450.3545454545454,574.4827586206895,444.75454545454545,586.2068965517241,444.75454545454545C597.9310344827586,444.75454545454545,597.9310344827586,443.4545454545455,609.6551724137931,443.4545454545455C621.3793103448277,443.4545454545455,621.3793103448277,442.6181818181818,633.1034482758621,442.6181818181818C644.8275862068965,442.6181818181818,644.8275862068965,439.4818181818182,656.551724137931,439.4818181818182C668.2758620689656,439.4818181818182,668.2758620689656,429.9090909090909,680,429.9090909090909L680,439.3181818181818C668.2758620689656,439.3181818181818,668.2758620689656,445.75454545454545,656.551724137931,445.75454545454545C644.8275862068965,445.75454545454545,644.8275862068965,448.6818181818182,633.1034482758621,448.6818181818182C621.3793103448277,448.6818181818182,621.3793103448277,448.4727272727273,609.6551724137931,448.4727272727273C597.9310344827586,448.4727272727273,597.9310344827586,448.09999999999997,586.2068965517241,448.09999999999997C574.4827586206895,448.09999999999997,574.4827586206895,452.8636363636364,562.7586206896551,452.8636363636364C551.0344827586207,452.8636363636364,551.0344827586207,457.1636363636364,539.3103448275863,457.1636363636364C527.5862068965517,457.1636363636364,527.5862068965517,458.79090909090905,515.8620689655172,458.79090909090905C504.13793103448273,458.79090909090905,504.13793103448273,457,492.41379310344826,457C480.68965517241384,457,480.68965517241384,457.79090909090905,468.96551724137936,457.79090909090905C457.2413793103449,457.79090909090905,457.2413793103449,457.79090909090905,445.51724137931035,457.79090909090905C433.7931034482759,457.79090909090905,433.7931034482759,458.5818181818182,422.0689655172414,458.5818181818182C410.34482758620686,458.5818181818182,410.34482758620686,455.53636363636366,398.6206896551724,455.53636363636366C386.8965517241379,455.53636363636366,386.8965517241379,455.11818181818177,375.17241379310343,455.11818181818177C363.44827586206895,455.11818181818177,363.44827586206895,455.53636363636366,351.72413793103453,455.53636363636366C340,455.53636363636366,340,458.79090909090905,328.2758620689655,458.79090909090905C316.55172413793105,458.79090909090905,316.55172413793105,454.7,304.82758620689657,454.7C269.65517241379314,454.7,269.65517241379314,457.5818181818182,234.48275862068968,457.5818181818182C222.75862068965517,457.5818181818182,222.75862068965517,459,211.0344827586207,459C199.31034482758622,459,199.31034482758622,460,187.58620689655172,460C175.86206896551724,460,175.86206896551724,458,164.13793103448276,458C152.41379310344826,458,152.41379310344826,460,140.68965517241378,460C117.24137931034483,460,117.24137931034483,459,93.79310344827586,459C82.06896551724137,459,82.06896551724137,460,70.34482758620689,460C58.62068965517241,460,58.62068965517241,460,46.89655172413793,460C35.172413793103445,460,35.172413793103445,460,23.448275862068964,460C11.724137931034482,460,11.724137931034482,458,0,458Z"><title>Western Asia</title></path><path fill="rgb(35, 23, 27)" d="M0,457.5818181818182C11.724137931034482,457.5818181818182,11.724137931034482,456.11818181818177,23.448275862068964,456.11818181818177C35.172413793103445,456.11818181818177,35.172413793103445,460,46.89655172413793,460C58.62068965517241,460,58.62068965517241,451.51818181818186,70.34482758620689,451.51818181818186C82.06896551724137,451.51818181818186,82.06896551724137,453.44545454545454,93.79310344827586,453.44545454545454C117.24137931034483,453.44545454545454,117.24137931034483,454.44545454545454,140.68965517241378,454.44545454545454C152.41379310344826,454.44545454545454,152.41379310344826,451.8636363636364,164.13793103448276,451.8636363636364C175.86206896551724,451.8636363636364,175.86206896551724,455.90909090909093,187.58620689655172,455.90909090909093C199.31034482758622,455.90909090909093,199.31034482758622,450.4,211.0344827586207,450.4C222.75862068965517,450.4,222.75862068965517,455.74545454545455,234.48275862068968,455.74545454545455C269.65517241379314,455.74545454545455,269.65517241379314,447.6363636363636,304.82758620689657,447.6363636363636C316.55172413793105,447.6363636363636,316.55172413793105,438.4818181818182,328.2758620689655,438.4818181818182C340,438.4818181818182,340,409.3454545454545,351.72413793103453,409.3454545454545C363.44827586206895,409.3454545454545,363.44827586206895,415.4090909090909,375.17241379310343,415.4090909090909C386.8965517241379,415.4090909090909,386.8965517241379,429.32727272727277,398.6206896551724,429.32727272727277C410.34482758620686,429.32727272727277,410.34482758620686,414.27272727272725,422.0689655172414,414.27272727272725C433.7931034482759,414.27272727272725,433.7931034482759,429.32727272727277,445.51724137931035,429.32727272727277C457.2413793103449,429.32727272727277,457.2413793103449,433.25454545454545,468.96551724137936,433.25454545454545C480.68965517241384,433.25454545454545,480.68965517241384,450.4,492.41379310344826,450.4C504.13793103448273,450.4,504.13793103448273,419.08181818181816,515.8620689655172,419.08181818181816C527.5862068965517,419.08181818181816,527.5862068965517,438.06363636363636,539.3103448275863,438.06363636363636C551.0344827586207,438.06363636363636,551.0344827586207,420.5909090909091,562.7586206896551,420.5909090909091C574.4827586206895,420.5909090909091,574.4827586206895,375.6818181818182,586.2068965517241,375.6818181818182C597.9310344827586,375.6818181818182,597.9310344827586,316.5090909090909,609.6551724137931,316.5090909090909C621.3793103448277,316.5090909090909,621.3793103448277,373.3363636363636,633.1034482758621,373.3363636363636C644.8275862068965,373.3363636363636,644.8275862068965,326.54545454545456,656.551724137931,326.54545454545456C668.2758620689656,326.54545454545456,668.2758620689656,399.6363636363636,680,399.6363636363636L680,428.9090909090909C668.2758620689656,428.9090909090909,668.2758620689656,360.6272727272727,656.551724137931,360.6272727272727C644.8275862068965,360.6272727272727,644.8275862068965,407.4181818181818,633.1034482758621,407.4181818181818C621.3793103448277,407.4181818181818,621.3793103448277,355.6090909090909,609.6551724137931,355.6090909090909C597.9310344827586,355.6090909090909,597.9310344827586,405.1636363636364,586.2068965517241,405.1636363636364C574.4827586206895,405.1636363636364,574.4827586206895,435.6454545454545,562.7586206896551,435.6454545454545C551.0344827586207,435.6454545454545,551.0344827586207,450.1909090909091,539.3103448275863,450.1909090909091C527.5862068965517,450.1909090909091,527.5862068965517,434.3454545454546,515.8620689655172,434.3454545454546C504.13793103448273,434.3454545454546,504.13793103448273,452.90909090909093,492.41379310344826,452.90909090909093C480.68965517241384,452.90909090909093,480.68965517241384,443.91818181818184,468.96551724137936,443.91818181818184C457.2413793103449,443.91818181818184,457.2413793103449,436.43636363636364,445.51724137931035,436.43636363636364C433.7931034482759,436.43636363636364,433.7931034482759,425.9818181818182,422.0689655172414,425.9818181818182C410.34482758620686,425.9818181818182,410.34482758620686,439.3636363636364,398.6206896551724,439.3636363636364C386.8965517241379,439.3636363636364,386.8965517241379,423.56363636363636,375.17241379310343,423.56363636363636C363.44827586206895,423.56363636363636,363.44827586206895,422.72727272727275,351.72413793103453,422.72727272727275C340,422.72727272727275,340,443.29090909090905,328.2758620689655,443.29090909090905C316.55172413793105,443.29090909090905,316.55172413793105,450.9818181818182,304.82758620689657,450.9818181818182C269.65517241379314,450.9818181818182,269.65517241379314,456.1636363636364,234.48275862068968,456.1636363636364C222.75862068965517,456.1636363636364,222.75862068965517,451.8636363636364,211.0344827586207,451.8636363636364C199.31034482758622,451.8636363636364,199.31034482758622,456.95454545454544,187.58620689655172,456.95454545454544C175.86206896551724,456.95454545454544,175.86206896551724,454.1636363636364,164.13793103448276,454.1636363636364C152.41379310344826,454.1636363636364,152.41379310344826,455.90909090909093,140.68965517241378,455.90909090909093C117.24137931034483,455.90909090909093,117.24137931034483,455.53636363636366,93.79310344827586,455.53636363636366C82.06896551724137,455.53636363636366,82.06896551724137,455.4909090909091,70.34482758620689,455.4909090909091C58.62068965517241,455.4909090909091,58.62068965517241,460,46.89655172413793,460C35.172413793103445,460,35.172413793103445,457.1636363636364,23.448275862068964,457.1636363636364C11.724137931034482,457.1636363636364,11.724137931034482,458,0,458Z"><title>Australasia</title></path><path fill="rgb(144, 12, 0)" d="M0,433.29999999999995C11.724137931034482,433.29999999999995,11.724137931034482,345.9454545454546,23.448275862068964,345.9454545454546C35.172413793103445,345.9454545454546,35.172413793103445,445.42727272727274,46.89655172413793,445.42727272727274C58.62068965517241,445.42727272727274,58.62068965517241,423.17272727272723,70.34482758620689,423.17272727272723C82.06896551724137,423.17272727272723,82.06896551724137,385.04545454545456,93.79310344827586,385.04545454545456C117.24137931034483,385.04545454545456,117.24137931034483,290.5363636363636,140.68965517241378,290.5363636363636C152.41379310344826,290.5363636363636,152.41379310344826,264.16363636363633,164.13793103448276,264.16363636363633C175.86206896551724,264.16363636363633,175.86206896551724,300.54545454545456,187.58620689655172,300.54545454545456C199.31034482758622,300.54545454545456,199.31034482758622,389.3636363636364,211.0344827586207,389.3636363636364C222.75862068965517,389.3636363636364,222.75862068965517,265.04545454545456,234.48275862068968,265.04545454545456C269.65517241379314,265.04545454545456,269.65517241379314,326.8454545454546,304.82758620689657,326.8454545454546C316.55172413793105,326.8454545454546,316.55172413793105,352.1,328.2758620689655,352.1C340,352.1,340,423.72727272727275,351.72413793103453,423.72727272727275C363.44827586206895,423.72727272727275,363.44827586206895,424.56363636363636,375.17241379310343,424.56363636363636C386.8965517241379,424.56363636363636,386.8965517241379,370.3363636363636,398.6206896551724,370.3363636363636C410.34482758620686,370.3363636363636,410.34482758620686,314.71818181818185,422.0689655172414,314.71818181818185C433.7931034482759,314.71818181818185,433.7931034482759,290.92727272727274,445.51724137931035,290.92727272727274C457.2413793103449,290.92727272727274,457.2413793103449,286.28181818181815,468.96551724137936,286.28181818181815C480.68965517241384,286.28181818181815,480.68965517241384,320.2,492.41379310344826,320.2C504.13793103448273,320.2,504.13793103448273,231.54545454545456,515.8620689655172,231.54545454545456C527.5862068965517,231.54545454545456,527.5862068965517,222.13636363636365,539.3103448275863,222.13636363636365C551.0344827586207,222.13636363636365,551.0344827586207,172.25454545454545,562.7586206896551,172.25454545454545C574.4827586206895,172.25454545454545,574.4827586206895,189.98181818181817,586.2068965517241,189.98181818181817C597.9310344827586,189.98181818181817,597.9310344827586,109.9,609.6551724137931,109.9C621.3793103448277,109.9,621.3793103448277,111.15454545454544,633.1034482758621,111.15454545454544C644.8275862068965,111.15454545454544,644.8275862068965,226.27272727272728,656.551724137931,226.27272727272728C668.2758620689656,226.27272727272728,668.2758620689656,220.62727272727273,680,220.62727272727273L680,273.31818181818187C668.2758620689656,273.31818181818187,668.2758620689656,280.2181818181818,656.551724137931,280.2181818181818C644.8275862068965,280.2181818181818,644.8275862068965,173.04545454545453,633.1034482758621,173.04545454545453C621.3793103448277,173.04545454545453,621.3793103448277,170.3272727272727,609.6551724137931,170.3272727272727C597.9310344827586,170.3272727272727,597.9310344827586,246.0181818181818,586.2068965517241,246.0181818181818C574.4827586206895,246.0181818181818,574.4827586206895,234.56363636363636,562.7586206896551,234.56363636363636C551.0344827586207,234.56363636363636,551.0344827586207,299.70909090909095,539.3103448275863,299.70909090909095C527.5862068965517,299.70909090909095,527.5862068965517,291.76363636363635,515.8620689655172,291.76363636363635C504.13793103448273,291.76363636363635,504.13793103448273,383.5545454545454,492.41379310344826,383.5545454545454C480.68965517241384,383.5545454545454,480.68965517241384,353.6090909090909,468.96551724137936,353.6090909090909C457.2413793103449,353.6090909090909,457.2413793103449,350.5181818181818,445.51724137931035,350.5181818181818C433.7931034482759,350.5181818181818,433.7931034482759,348.59090909090907,422.0689655172414,348.59090909090907C410.34482758620686,348.59090909090907,410.34482758620686,384.9727272727273,398.6206896551724,384.9727272727273C386.8965517241379,384.9727272727273,386.8965517241379,431.25454545454545,375.17241379310343,431.25454545454545C363.44827586206895,431.25454545454545,363.44827586206895,432.29999999999995,351.72413793103453,432.29999999999995C340,432.29999999999995,340,381.5818181818182,328.2758620689655,381.5818181818182C316.55172413793105,381.5818181818182,316.55172413793105,360.29999999999995,304.82758620689657,360.29999999999995C269.65517241379314,360.29999999999995,269.65517241379314,348.4727272727273,234.48275862068968,348.4727272727273C222.75862068965517,348.4727272727273,222.75862068965517,408.8090909090909,211.0344827586207,408.8090909090909C199.31034482758622,408.8090909090909,199.31034482758622,344.6636363636364,187.58620689655172,344.6636363636364C175.86206896551724,344.6636363636364,175.86206896551724,317.4818181818182,164.13793103448276,317.4818181818182C152.41379310344826,317.4818181818182,152.41379310344826,375.6363636363636,140.68965517241378,375.6363636363636C117.24137931034483,375.6363636363636,117.24137931034483,412.6454545454545,93.79310344827586,412.6454545454545C82.06896551724137,412.6454545454545,82.06896551724137,444.0818181818182,70.34482758620689,444.0818181818182C58.62068965517241,444.0818181818182,58.62068965517241,448.77272727272725,46.89655172413793,448.77272727272725C35.172413793103445,448.77272727272725,35.172413793103445,409.7181818181818,23.448275862068964,409.7181818181818C11.724137931034482,409.7181818181818,11.724137931034482,444.1727272727273,0,444.1727272727273Z"><title>Western Europe</title></path><path fill="rgb(44, 166, 241)" d="M0,454.07272727272726C11.724137931034482,454.07272727272726,11.724137931034482,444.29090909090905,23.448275862068964,444.29090909090905C35.172413793103445,444.29090909090905,35.172413793103445,449.77272727272725,46.89655172413793,449.77272727272725C58.62068965517241,449.77272727272725,58.62068965517241,445.0818181818182,70.34482758620689,445.0818181818182C82.06896551724137,445.0818181818182,82.06896551724137,437.43636363636364,93.79310344827586,437.43636363636364C117.24137931034483,437.43636363636364,117.24137931034483,451.3545454545454,140.68965517241378,451.3545454545454C152.41379310344826,451.3545454545454,152.41379310344826,416.6636363636364,164.13793103448276,416.6636363636364C175.86206896551724,416.6636363636364,175.86206896551724,434.55454545454546,187.58620689655172,434.55454545454546C199.31034482758622,434.55454545454546,199.31034482758622,427.1181818181818,211.0344827586207,427.1181818181818C222.75862068965517,427.1181818181818,222.75862068965517,421.05454545454546,234.48275862068968,421.05454545454546C269.65517241379314,421.05454545454546,269.65517241379314,413.6909090909091,304.82758620689657,413.6909090909091C316.55172413793105,413.6909090909091,316.55172413793105,263.1181818181818,328.2758620689655,263.1181818181818C340,263.1181818181818,340,262.95454545454544,351.72413793103453,262.95454545454544C363.44827586206895,262.95454545454544,363.44827586206895,263.5818181818182,375.17241379310343,263.5818181818182C386.8965517241379,263.5818181818182,386.8965517241379,236.8181818181818,398.6206896551724,236.8181818181818C410.34482758620686,236.8181818181818,410.34482758620686,233.42727272727274,422.0689655172414,233.42727272727274C433.7931034482759,233.42727272727274,433.7931034482759,200.2272727272727,445.51724137931035,200.2272727272727C457.2413793103449,200.2272727272727,457.2413793103449,176.13636363636365,468.96551724137936,176.13636363636365C480.68965517241384,176.13636363636365,480.68965517241384,157.99090909090907,492.41379310344826,157.99090909090907C504.13793103448273,157.99090909090907,504.13793103448273,395.91818181818184,515.8620689655172,395.91818181818184C527.5862068965517,395.91818181818184,527.5862068965517,124.74545454545452,539.3103448275863,124.74545454545452C551.0344827586207,124.74545454545452,551.0344827586207,90.12727272727271,562.7586206896551,90.12727272727271C574.4827586206895,90.12727272727271,574.4827586206895,57.30000000000001,586.2068965517241,57.30000000000001C597.9310344827586,57.30000000000001,597.9310344827586,25.681818181818187,609.6551724137931,25.681818181818187C621.3793103448277,25.681818181818187,621.3793103448277,29.236363636363627,633.1034482758621,29.236363636363627C644.8275862068965,29.236363636363627,644.8275862068965,163.3818181818182,656.551724137931,163.3818181818182C668.2758620689656,163.3818181818182,668.2758620689656,166.93636363636364,680,166.93636363636364L680,219.62727272727273C668.2758620689656,219.62727272727273,668.2758620689656,225.27272727272728,656.551724137931,225.27272727272728C644.8275862068965,225.27272727272728,644.8275862068965,110.15454545454544,633.1034482758621,110.15454545454544C621.3793103448277,110.15454545454544,621.3793103448277,108.9,609.6551724137931,108.9C597.9310344827586,108.9,597.9310344827586,122.95454545454547,586.2068965517241,122.95454545454547C574.4827586206895,122.95454545454547,574.4827586206895,171.25454545454545,562.7586206896551,171.25454545454545C551.0344827586207,171.25454545454545,551.0344827586207,221.13636363636365,539.3103448275863,221.13636363636365C527.5862068965517,221.13636363636365,527.5862068965517,418.08181818181816,515.8620689655172,418.08181818181816C504.13793103448273,418.08181818181816,504.13793103448273,319.2,492.41379310344826,319.2C480.68965517241384,319.2,480.68965517241384,285.28181818181815,468.96551724137936,285.28181818181815C457.2413793103449,285.28181818181815,457.2413793103449,289.92727272727274,445.51724137931035,289.92727272727274C433.7931034482759,289.92727272727274,433.7931034482759,313.71818181818185,422.0689655172414,313.71818181818185C410.34482758620686,313.71818181818185,410.34482758620686,311.8818181818182,398.6206896551724,311.8818181818182C386.8965517241379,311.8818181818182,386.8965517241379,327.98181818181814,375.17241379310343,327.98181818181814C363.44827586206895,327.98181818181814,363.44827586206895,324.8454545454546,351.72413793103453,324.8454545454546C340,324.8454545454546,340,315.8090909090909,328.2758620689655,315.8090909090909C316.55172413793105,315.8090909090909,316.55172413793105,430.6272727272727,304.82758620689657,430.6272727272727C269.65517241379314,430.6272727272727,269.65517241379314,435.6909090909091,234.48275862068968,435.6909090909091C222.75862068965517,435.6909090909091,222.75862068965517,438.6181818181818,211.0344827586207,438.6181818181818C199.31034482758622,438.6181818181818,199.31034482758622,445.8454545454546,187.58620689655172,445.8454545454546C175.86206896551724,445.8454545454546,175.86206896551724,428.7909090909091,164.13793103448276,428.7909090909091C152.41379310344826,428.7909090909091,152.41379310344826,453.44545454545454,140.68965517241378,453.44545454545454C117.24137931034483,453.44545454545454,117.24137931034483,446.6363636363636,93.79310344827586,446.6363636363636C82.06896551724137,446.6363636363636,82.06896551724137,450.51818181818186,70.34482758620689,450.51818181818186C58.62068965517241,450.51818181818186,58.62068965517241,452.2818181818182,46.89655172413793,452.2818181818182C35.172413793103445,452.2818181818182,35.172413793103445,452.8636363636364,23.448275862068964,452.8636363636364C11.724137931034482,452.8636363636364,11.724137931034482,456.5818181818182,0,456.5818181818182Z"><title>Eastern Europe</title></path><path fill="rgb(95, 252, 115)" d="M0,445.1727272727273C11.724137931034482,445.1727272727273,11.724137931034482,431.3727272727273,23.448275862068964,431.3727272727273C35.172413793103445,431.3727272727273,35.172413793103445,354.72727272727275,46.89655172413793,354.72727272727275C58.62068965517241,354.72727272727275,58.62068965517241,398.3363636363636,70.34482758620689,398.3363636363636C82.06896551724137,398.3363636363636,82.06896551724137,413.6454545454545,93.79310344827586,413.6454545454545C117.24137931034483,413.6454545454545,117.24137931034483,376.6363636363636,140.68965517241378,376.6363636363636C152.41379310344826,376.6363636363636,152.41379310344826,370.08181818181816,164.13793103448276,370.08181818181816C175.86206896551724,370.08181818181816,175.86206896551724,377.6090909090909,187.58620689655172,377.6090909090909C199.31034482758622,377.6090909090909,199.31034482758622,319.40909090909093,211.0344827586207,319.40909090909093C222.75862068965517,319.40909090909093,222.75862068965517,379.5363636363636,234.48275862068968,379.5363636363636C269.65517241379314,379.5363636363636,269.65517241379314,361.29999999999995,304.82758620689657,361.29999999999995C316.55172413793105,361.29999999999995,316.55172413793105,382.5818181818182,328.2758620689655,382.5818181818182C340,382.5818181818182,340,325.8454545454546,351.72413793103453,325.8454545454546C363.44827586206895,325.8454545454546,363.44827586206895,328.98181818181814,375.17241379310343,328.98181818181814C386.8965517241379,328.98181818181814,386.8965517241379,312.8818181818182,398.6206896551724,312.8818181818182C410.34482758620686,312.8818181818182,410.34482758620686,349.59090909090907,422.0689655172414,349.59090909090907C433.7931034482759,349.59090909090907,433.7931034482759,351.5181818181818,445.51724137931035,351.5181818181818C457.2413793103449,351.5181818181818,457.2413793103449,354.6090909090909,468.96551724137936,354.6090909090909C480.68965517241384,354.6090909090909,480.68965517241384,459,492.41379310344826,459C504.13793103448273,459,504.13793103448273,142.93636363636364,515.8620689655172,142.93636363636364C527.5862068965517,142.93636363636364,527.5862068965517,300.70909090909095,539.3103448275863,300.70909090909095C551.0344827586207,300.70909090909095,551.0344827586207,235.56363636363636,562.7586206896551,235.56363636363636C574.4827586206895,235.56363636363636,574.4827586206895,123.95454545454547,586.2068965517241,123.95454545454547C597.9310344827586,123.95454545454547,597.9310344827586,171.3272727272727,609.6551724137931,171.3272727272727C621.3793103448277,171.3272727272727,621.3793103448277,174.04545454545453,633.1034482758621,174.04545454545453C644.8275862068965,174.04545454545453,644.8275862068965,20.036363636363618,656.551724137931,20.036363636363618C668.2758620689656,20.036363636363618,668.2758620689656,40.31818181818184,680,40.31818181818184L680,104.50909090909093C668.2758620689656,104.50909090909093,668.2758620689656,93.00909090909092,656.551724137931,93.00909090909092C644.8275862068965,93.00909090909092,644.8275862068965,232.8,633.1034482758621,232.8C621.3793103448277,232.8,621.3793103448277,229.66363636363636,609.6551724137931,229.66363636363636C597.9310344827586,229.66363636363636,597.9310344827586,188.98181818181817,586.2068965517241,188.98181818181817C574.4827586206895,188.98181818181817,574.4827586206895,291.59999999999997,562.7586206896551,291.59999999999997C551.0344827586207,291.59999999999997,551.0344827586207,345.45454545454544,539.3103448275863,345.45454545454544C527.5862068965517,345.45454545454544,527.5862068965517,230.54545454545456,515.8620689655172,230.54545454545456C504.13793103448273,230.54545454545456,504.13793103448273,459,492.41379310344826,459C480.68965517241384,459,480.68965517241384,391.40909090909093,468.96551724137936,391.40909090909093C457.2413793103449,391.40909090909093,457.2413793103449,386.0181818181818,445.51724137931035,386.0181818181818C433.7931034482759,386.0181818181818,433.7931034482759,382.8363636363636,422.0689655172414,382.8363636363636C410.34482758620686,382.8363636363636,410.34482758620686,369.3363636363636,398.6206896551724,369.3363636363636C386.8965517241379,369.3363636363636,386.8965517241379,372.6818181818182,375.17241379310343,372.6818181818182C363.44827586206895,372.6818181818182,363.44827586206895,366.4090909090909,351.72413793103453,366.4090909090909C340,366.4090909090909,340,410.6,328.2758620689655,410.6C316.55172413793105,410.6,316.55172413793105,393.5,304.82758620689657,393.5C269.65517241379314,393.5,269.65517241379314,403.3727272727273,234.48275862068968,403.3727272727273C222.75862068965517,403.3727272727273,222.75862068965517,365.20000000000005,211.0344827586207,365.20000000000005C199.31034482758622,365.20000000000005,199.31034482758622,402.07272727272726,187.58620689655172,402.07272727272726C175.86206896551724,402.07272727272726,175.86206896551724,415.6636363636364,164.13793103448276,415.6636363636364C152.41379310344826,415.6636363636364,152.41379310344826,420.3363636363636,140.68965517241378,420.3363636363636C117.24137931034483,420.3363636363636,117.24137931034483,436.43636363636364,93.79310344827586,436.43636363636364C82.06896551724137,436.43636363636364,82.06896551724137,422.17272727272723,70.34482758620689,422.17272727272723C58.62068965517241,422.17272727272723,58.62068965517241,444.42727272727274,46.89655172413793,444.42727272727274C35.172413793103445,444.42727272727274,35.172413793103445,443.29090909090905,23.448275862068964,443.29090909090905C11.724137931034482,443.29090909090905,11.724137931034482,449.3545454545454,0,449.3545454545454Z"><title>Northern America</title></path><path fill="rgb(214, 57, 15)" d="M0,458C11.724137931034482,458,11.724137931034482,460,23.448275862068964,460C35.172413793103445,460,35.172413793103445,459,46.89655172413793,459C58.62068965517241,459,58.62068965517241,459.5818181818182,70.34482758620689,459.5818181818182C82.06896551724137,459.5818181818182,82.06896551724137,456.53636363636366,93.79310344827586,456.53636363636366C117.24137931034483,456.53636363636366,117.24137931034483,445.96363636363634,140.68965517241378,445.96363636363634C152.41379310344826,445.96363636363634,152.41379310344826,455.1636363636364,164.13793103448276,455.1636363636364C175.86206896551724,455.1636363636364,175.86206896551724,453.6545454545454,187.58620689655172,453.6545454545454C199.31034482758622,453.6545454545454,199.31034482758622,455.3272727272727,211.0344827586207,455.3272727272727C222.75862068965517,455.3272727272727,222.75862068965517,459.79090909090905,234.48275862068968,459.79090909090905C269.65517241379314,459.79090909090905,269.65517241379314,457.74545454545455,304.82758620689657,457.74545454545455C316.55172413793105,457.74545454545455,316.55172413793105,452.3545454545454,328.2758620689655,452.3545454545454C340,452.3545454545454,340,456.53636363636366,351.72413793103453,456.53636363636366C363.44827586206895,456.53636363636366,363.44827586206895,456.11818181818177,375.17241379310343,456.11818181818177C386.8965517241379,456.11818181818177,386.8965517241379,456.53636363636366,398.6206896551724,456.53636363636366C410.34482758620686,456.53636363636366,410.34482758620686,452.56363636363636,422.0689655172414,452.56363636363636C433.7931034482759,452.56363636363636,433.7931034482759,451.77272727272725,445.51724137931035,451.77272727272725C457.2413793103449,451.77272727272725,457.2413793103449,460,468.96551724137936,460C480.68965517241384,460,480.68965517241384,440.24545454545455,492.41379310344826,440.24545454545455C504.13793103448273,440.24545454545455,504.13793103448273,452.6090909090909,515.8620689655172,452.6090909090909C527.5862068965517,452.6090909090909,527.5862068965517,451.1909090909091,539.3103448275863,451.1909090909091C551.0344827586207,451.1909090909091,551.0344827586207,436.6454545454545,562.7586206896551,436.6454545454545C574.4827586206895,436.6454545454545,574.4827586206895,433.71818181818185,586.2068965517241,433.71818181818185C597.9310344827586,433.71818181818185,597.9310344827586,432.6272727272727,609.6551724137931,432.6272727272727C621.3793103448277,432.6272727272727,621.3793103448277,433.8818181818182,633.1034482758621,433.8818181818182C644.8275862068965,433.8818181818182,644.8275862068965,427.1909090909091,656.551724137931,427.1909090909091C668.2758620689656,427.1909090909091,668.2758620689656,440.3181818181818,680,440.3181818181818L680,447.0090909090909C668.2758620689656,447.0090909090909,668.2758620689656,438.4818181818182,656.551724137931,438.4818181818182C644.8275862068965,438.4818181818182,644.8275862068965,441.6181818181818,633.1034482758621,441.6181818181818C621.3793103448277,441.6181818181818,621.3793103448277,442.4545454545455,609.6551724137931,442.4545454545455C597.9310344827586,442.4545454545455,597.9310344827586,443.75454545454545,586.2068965517241,443.75454545454545C574.4827586206895,443.75454545454545,574.4827586206895,445.0090909090909,562.7586206896551,445.0090909090909C551.0344827586207,445.0090909090909,551.0344827586207,453.4909090909091,539.3103448275863,453.4909090909091C527.5862068965517,453.4909090909091,527.5862068965517,454.90909090909093,515.8620689655172,454.90909090909093C504.13793103448273,454.90909090909093,504.13793103448273,445.0545454545454,492.41379310344826,445.0545454545454C480.68965517241384,445.0545454545454,480.68965517241384,460,468.96551724137936,460C457.2413793103449,460,457.2413793103449,455.74545454545455,445.51724137931035,455.74545454545455C433.7931034482759,455.74545454545455,433.7931034482759,456.11818181818177,422.0689655172414,456.11818181818177C410.34482758620686,456.11818181818177,410.34482758620686,457.3727272727273,398.6206896551724,457.3727272727273C386.8965517241379,457.3727272727273,386.8965517241379,457.1636363636364,375.17241379310343,457.1636363636364C363.44827586206895,457.1636363636364,363.44827586206895,458,351.72413793103453,458C340,458,340,455.2818181818182,328.2758620689655,455.2818181818182C316.55172413793105,455.2818181818182,316.55172413793105,458.5818181818182,304.82758620689657,458.5818181818182C269.65517241379314,458.5818181818182,269.65517241379314,460,234.48275862068968,460C222.75862068965517,460,222.75862068965517,456.3727272727273,211.0344827586207,456.3727272727273C199.31034482758622,456.3727272727273,199.31034482758622,454.90909090909093,187.58620689655172,454.90909090909093C175.86206896551724,454.90909090909093,175.86206896551724,455.79090909090905,164.13793103448276,455.79090909090905C152.41379310344826,455.79090909090905,152.41379310344826,450.3545454545454,140.68965517241378,450.3545454545454C117.24137931034483,450.3545454545454,117.24137931034483,458,93.79310344827586,458C82.06896551724137,458,82.06896551724137,460,70.34482758620689,460C58.62068965517241,460,58.62068965517241,459,46.89655172413793,459C35.172413793103445,459,35.172413793103445,460,23.448275862068964,460C11.724137931034482,460,11.724137931034482,458,0,458Z"><title>Sub-Saharan Africa</title></path><path fill="rgb(64, 118, 245)" d="M0,458C11.724137931034482,458,11.724137931034482,460,23.448275862068964,460C35.172413793103445,460,35.172413793103445,458,46.89655172413793,458C58.62068965517241,458,58.62068965517241,460,70.34482758620689,460C82.06896551724137,460,82.06896551724137,459,93.79310344827586,459C117.24137931034483,459,117.24137931034483,459.3727272727273,140.68965517241378,459.3727272727273C152.41379310344826,459.3727272727273,152.41379310344826,456.79090909090905,164.13793103448276,456.79090909090905C175.86206896551724,456.79090909090905,175.86206896551724,450.9818181818182,187.58620689655172,450.9818181818182C199.31034482758622,450.9818181818182,199.31034482758622,439.6181818181818,211.0344827586207,439.6181818181818C222.75862068965517,439.6181818181818,222.75862068965517,443.3363636363636,234.48275862068968,443.3363636363636C269.65517241379314,443.3363636363636,269.65517241379314,459.5818181818182,304.82758620689657,459.5818181818182C316.55172413793105,459.5818181818182,316.55172413793105,448.42727272727274,328.2758620689655,448.42727272727274C340,448.42727272727274,340,440.7818181818182,351.72413793103453,440.7818181818182C363.44827586206895,440.7818181818182,363.44827586206895,432.25454545454545,375.17241379310343,432.25454545454545C386.8965517241379,432.25454545454545,386.8965517241379,385.9727272727273,398.6206896551724,385.9727272727273C410.34482758620686,385.9727272727273,410.34482758620686,383.8363636363636,422.0689655172414,383.8363636363636C433.7931034482759,383.8363636363636,433.7931034482759,387.0181818181818,445.51724137931035,387.0181818181818C457.2413793103449,387.0181818181818,457.2413793103449,406.3727272727273,468.96551724137936,406.3727272727273C480.68965517241384,406.3727272727273,480.68965517241384,453.90909090909093,492.41379310344826,453.90909090909093C504.13793103448273,453.90909090909093,504.13793103448273,330.1454545454546,515.8620689655172,330.1454545454546C527.5862068965517,330.1454545454546,527.5862068965517,346.45454545454544,539.3103448275863,346.45454545454544C551.0344827586207,346.45454545454544,551.0344827586207,292.59999999999997,562.7586206896551,292.59999999999997C574.4827586206895,292.59999999999997,574.4827586206895,247.0181818181818,586.2068965517241,247.0181818181818C597.9310344827586,247.0181818181818,597.9310344827586,230.66363636363636,609.6551724137931,230.66363636363636C621.3793103448277,230.66363636363636,621.3793103448277,233.8,633.1034482758621,233.8C644.8275862068965,233.8,644.8275862068965,94.00909090909092,656.551724137931,94.00909090909092C668.2758620689656,94.00909090909092,668.2758620689656,105.50909090909093,680,105.50909090909093L680,165.93636363636364C668.2758620689656,165.93636363636364,668.2758620689656,162.3818181818182,656.551724137931,162.3818181818182C644.8275862068965,162.3818181818182,644.8275862068965,287.5363636363636,633.1034482758621,287.5363636363636C621.3793103448277,287.5363636363636,621.3793103448277,273.31818181818187,609.6551724137931,273.31818181818187C597.9310344827586,273.31818181818187,597.9310344827586,294.4818181818182,586.2068965517241,294.4818181818182C574.4827586206895,294.4818181818182,574.4827586206895,336.7181818181818,562.7586206896551,336.7181818181818C551.0344827586207,336.7181818181818,551.0344827586207,378.0272727272727,539.3103448275863,378.0272727272727C527.5862068965517,378.0272727272727,527.5862068965517,365.27272727272725,515.8620689655172,365.27272727272725C504.13793103448273,365.27272727272725,504.13793103448273,455.79090909090905,492.41379310344826,455.79090909090905C480.68965517241384,455.79090909090905,480.68965517241384,419.1272727272727,468.96551724137936,419.1272727272727C457.2413793103449,419.1272727272727,457.2413793103449,402.28181818181815,445.51724137931035,402.28181818181815C433.7931034482759,402.28181818181815,433.7931034482759,399.3090909090909,422.0689655172414,399.3090909090909C410.34482758620686,399.3090909090909,410.34482758620686,399.98181818181814,398.6206896551724,399.98181818181814C386.8965517241379,399.98181818181814,386.8965517241379,438.5272727272727,375.17241379310343,438.5272727272727C363.44827586206895,438.5272727272727,363.44827586206895,446.21818181818185,351.72413793103453,446.21818181818185C340,446.21818181818185,340,451.3545454545454,328.2758620689655,451.3545454545454C316.55172413793105,451.3545454545454,316.55172413793105,460,304.82758620689657,460C269.65517241379314,460,269.65517241379314,447.7272727272727,234.48275862068968,447.7272727272727C222.75862068965517,447.7272727272727,222.75862068965517,446.09999999999997,211.0344827586207,446.09999999999997C199.31034482758622,446.09999999999997,199.31034482758622,452.6545454545454,187.58620689655172,452.6545454545454C175.86206896551724,452.6545454545454,175.86206896551724,457,164.13793103448276,457C152.41379310344826,457,152.41379310344826,460,140.68965517241378,460C117.24137931034483,460,117.24137931034483,459,93.79310344827586,459C82.06896551724137,459,82.06896551724137,460,70.34482758620689,460C58.62068965517241,460,58.62068965517241,458,46.89655172413793,458C35.172413793103445,458,35.172413793103445,460,23.448275862068964,460C11.724137931034482,460,11.724137931034482,458,0,458Z"><title>East Asia</title></path><path fill="rgb(251, 105, 25)" d="M0,421.42727272727274C11.724137931034482,421.42727272727274,11.724137931034482,453.8636363636364,23.448275862068964,453.8636363636364C35.172413793103445,453.8636363636364,35.172413793103445,457.5818181818182,46.89655172413793,457.5818181818182C58.62068965517241,457.5818181818182,58.62068965517241,456.4909090909091,70.34482758620689,456.4909090909091C82.06896551724137,456.4909090909091,82.06896551724137,447.6363636363636,93.79310344827586,447.6363636363636C117.24137931034483,447.6363636363636,117.24137931034483,421.3363636363636,140.68965517241378,421.3363636363636C152.41379310344826,421.3363636363636,152.41379310344826,429.7909090909091,164.13793103448276,429.7909090909091C175.86206896551724,429.7909090909091,175.86206896551724,403.07272727272726,187.58620689655172,403.07272727272726C199.31034482758622,403.07272727272726,199.31034482758622,409.8090909090909,211.0344827586207,409.8090909090909C222.75862068965517,409.8090909090909,222.75862068965517,404.3727272727273,234.48275862068968,404.3727272727273C269.65517241379314,404.3727272727273,269.65517241379314,394.5,304.82758620689657,394.5C316.55172413793105,394.5,316.55172413793105,411.6,328.2758620689655,411.6C340,411.6,340,393.70909090909095,351.72413793103453,393.70909090909095C363.44827586206895,393.70909090909095,363.44827586206895,373.6818181818182,375.17241379310343,373.6818181818182C386.8965517241379,373.6818181818182,386.8965517241379,400.98181818181814,398.6206896551724,400.98181818181814C410.34482758620686,400.98181818181814,410.34482758620686,400.3090909090909,422.0689655172414,400.3090909090909C433.7931034482759,400.3090909090909,433.7931034482759,418.7090909090909,445.51724137931035,418.7090909090909C457.2413793103449,418.7090909090909,457.2413793103449,420.1272727272727,468.96551724137936,420.1272727272727C480.68965517241384,420.1272727272727,480.68965517241384,384.5545454545454,492.41379310344826,384.5545454545454C504.13793103448273,384.5545454545454,504.13793103448273,292.76363636363635,515.8620689655172,292.76363636363635C527.5862068965517,292.76363636363635,527.5862068965517,401.56363636363636,539.3103448275863,401.56363636363636C551.0344827586207,401.56363636363636,551.0344827586207,370.08181818181816,562.7586206896551,370.08181818181816C574.4827586206895,370.08181818181816,574.4827586206895,295.4818181818182,586.2068965517241,295.4818181818182C597.9310344827586,295.4818181818182,597.9310344827586,396.5,609.6551724137931,396.5C621.3793103448277,396.5,621.3793103448277,288.5363636363636,633.1034482758621,288.5363636363636C644.8275862068965,288.5363636363636,644.8275862068965,395.4545454545455,656.551724137931,395.4545454545455C668.2758620689656,395.4545454545455,668.2758620689656,274.31818181818187,680,274.31818181818187L680,317.8090909090909C668.2758620689656,317.8090909090909,668.2758620689656,426.1909090909091,656.551724137931,426.1909090909091C644.8275862068965,426.1909090909091,644.8275862068965,330.77272727272725,633.1034482758621,330.77272727272725C621.3793103448277,330.77272727272725,621.3793103448277,431.6272727272727,609.6551724137931,431.6272727272727C597.9310344827586,431.6272727272727,597.9310344827586,338.55454545454546,586.2068965517241,338.55454545454546C574.4827586206895,338.55454545454546,574.4827586206895,398.3090909090909,562.7586206896551,398.3090909090909C551.0344827586207,398.3090909090909,551.0344827586207,422.2636363636364,539.3103448275863,422.2636363636364C527.5862068965517,422.2636363636364,527.5862068965517,329.1454545454546,515.8620689655172,329.1454545454546C504.13793103448273,329.1454545454546,504.13793103448273,410.27272727272725,492.41379310344826,410.27272727272725C480.68965517241384,410.27272727272725,480.68965517241384,432.25454545454545,468.96551724137936,432.25454545454545C457.2413793103449,432.25454545454545,457.2413793103449,428.32727272727277,445.51724137931035,428.32727272727277C433.7931034482759,428.32727272727277,433.7931034482759,413.27272727272725,422.0689655172414,413.27272727272725C410.34482758620686,413.27272727272725,410.34482758620686,414.5727272727273,398.6206896551724,414.5727272727273C386.8965517241379,414.5727272727273,386.8965517241379,399.6090909090909,375.17241379310343,399.6090909090909C363.44827586206895,399.6090909090909,363.44827586206895,408.3454545454545,351.72413793103453,408.3454545454545C340,408.3454545454545,340,428.32727272727277,328.2758620689655,428.32727272727277C316.55172413793105,428.32727272727277,316.55172413793105,412.6909090909091,304.82758620689657,412.6909090909091C269.65517241379314,412.6909090909091,269.65517241379314,420.05454545454546,234.48275862068968,420.05454545454546C222.75862068965517,420.05454545454546,222.75862068965517,426.1181818181818,211.0344827586207,426.1181818181818C199.31034482758622,426.1181818181818,199.31034482758622,420.8454545454545,187.58620689655172,420.8454545454545C175.86206896551724,420.8454545454545,175.86206896551724,441.5,164.13793103448276,441.5C152.41379310344826,441.5,152.41379310344826,444.96363636363634,140.68965517241378,444.96363636363634C117.24137931034483,444.96363636363634,117.24137931034483,452.44545454545454,93.79310344827586,452.44545454545454C82.06896551724137,452.44545454545454,82.06896551724137,458.5818181818182,70.34482758620689,458.5818181818182C58.62068965517241,458.5818181818182,58.62068965517241,458,46.89655172413793,458C35.172413793103445,458,35.172413793103445,455.11818181818177,23.448275862068964,455.11818181818177C11.724137931034482,455.11818181818177,11.724137931034482,432.29999999999995,0,432.29999999999995Z"><title>Southern Europe</title></path><path fill="rgb(149, 251, 81)" d="M0,450.3545454545454C11.724137931034482,450.3545454545454,11.724137931034482,410.7181818181818,23.448275862068964,410.7181818181818C35.172413793103445,410.7181818181818,35.172413793103445,456.1636363636364,46.89655172413793,456.1636363636364C58.62068965517241,456.1636363636364,58.62068965517241,285.8909090909091,70.34482758620689,285.8909090909091C82.06896551724137,285.8909090909091,82.06896551724137,266.95454545454544,93.79310344827586,266.95454545454544C117.24137931034483,266.95454545454544,117.24137931034483,180.60000000000002,140.68965517241378,180.60000000000002C152.41379310344826,180.60000000000002,152.41379310344826,318.4818181818182,164.13793103448276,318.4818181818182C175.86206896551724,318.4818181818182,175.86206896551724,345.6636363636364,187.58620689655172,345.6636363636364C199.31034482758622,345.6636363636364,199.31034482758622,366.20000000000005,211.0344827586207,366.20000000000005C222.75862068965517,366.20000000000005,222.75862068965517,349.4727272727273,234.48275862068968,349.4727272727273C269.65517241379314,349.4727272727273,269.65517241379314,278.8,304.82758620689657,278.8C316.55172413793105,278.8,316.55172413793105,316.8090909090909,328.2758620689655,316.8090909090909C340,316.8090909090909,340,367.4090909090909,351.72413793103453,367.4090909090909C363.44827586206895,367.4090909090909,363.44827586206895,400.6090909090909,375.17241379310343,400.6090909090909C386.8965517241379,400.6090909090909,386.8965517241379,415.5727272727273,398.6206896551724,415.5727272727273C410.34482758620686,415.5727272727273,410.34482758620686,426.9818181818182,422.0689655172414,426.9818181818182C433.7931034482759,426.9818181818182,433.7931034482759,403.28181818181815,445.51724137931035,403.28181818181815C457.2413793103449,403.28181818181815,457.2413793103449,392.40909090909093,468.96551724137936,392.40909090909093C480.68965517241384,392.40909090909093,480.68965517241384,411.27272727272725,492.41379310344826,411.27272727272725C504.13793103448273,411.27272727272725,504.13793103448273,366.27272727272725,515.8620689655172,366.27272727272725C527.5862068965517,366.27272727272725,527.5862068965517,379.0272727272727,539.3103448275863,379.0272727272727C551.0344827586207,379.0272727272727,551.0344827586207,337.7181818181818,562.7586206896551,337.7181818181818C574.4827586206895,337.7181818181818,574.4827586206895,406.1636363636364,586.2068965517241,406.1636363636364C597.9310344827586,406.1636363636364,597.9310344827586,356.6090909090909,609.6551724137931,356.6090909090909C621.3793103448277,356.6090909090909,621.3793103448277,408.4181818181818,633.1034482758621,408.4181818181818C644.8275862068965,408.4181818181818,644.8275862068965,361.6272727272727,656.551724137931,361.6272727272727C668.2758620689656,361.6272727272727,668.2758620689656,318.8090909090909,680,318.8090909090909L680,361.25454545454545C668.2758620689656,361.25454545454545,668.2758620689656,394.4545454545455,656.551724137931,394.4545454545455C644.8275862068965,394.4545454545455,644.8275862068965,432.8818181818182,633.1034482758621,432.8818181818182C621.3793103448277,432.8818181818182,621.3793103448277,395.5,609.6551724137931,395.5C597.9310344827586,395.5,597.9310344827586,432.71818181818185,586.2068965517241,432.71818181818185C574.4827586206895,432.71818181818185,574.4827586206895,369.08181818181816,562.7586206896551,369.08181818181816C551.0344827586207,369.08181818181816,551.0344827586207,400.56363636363636,539.3103448275863,400.56363636363636C527.5862068965517,400.56363636363636,527.5862068965517,394.91818181818184,515.8620689655172,394.91818181818184C504.13793103448273,394.91818181818184,504.13793103448273,428.6272727272727,492.41379310344826,428.6272727272727C480.68965517241384,428.6272727272727,480.68965517241384,405.3727272727273,468.96551724137936,405.3727272727273C457.2413793103449,405.3727272727273,457.2413793103449,417.7090909090909,445.51724137931035,417.7090909090909C433.7931034482759,417.7090909090909,433.7931034482759,438.06363636363636,422.0689655172414,438.06363636363636C410.34482758620686,438.06363636363636,410.34482758620686,428.32727272727277,398.6206896551724,428.32727272727277C386.8965517241379,428.32727272727277,386.8965517241379,414.4090909090909,375.17241379310343,414.4090909090909C363.44827586206895,414.4090909090909,363.44827586206895,392.70909090909095,351.72413793103453,392.70909090909095C340,392.70909090909095,340,351.1,328.2758620689655,351.1C316.55172413793105,351.1,316.55172413793105,325.8454545454546,304.82758620689657,325.8454545454546C269.65517241379314,325.8454545454546,269.65517241379314,378.5363636363636,234.48275862068968,378.5363636363636C222.75862068965517,378.5363636363636,222.75862068965517,388.3636363636364,211.0344827586207,388.3636363636364C199.31034482758622,388.3636363636364,199.31034482758622,376.6090909090909,187.58620689655172,376.6090909090909C175.86206896551724,376.6090909090909,175.86206896551724,369.08181818181816,164.13793103448276,369.08181818181816C152.41379310344826,369.08181818181816,152.41379310344826,289.5363636363636,140.68965517241378,289.5363636363636C117.24137931034483,289.5363636363636,117.24137931034483,384.04545454545456,93.79310344827586,384.04545454545456C82.06896551724137,384.04545454545456,82.06896551724137,397.3363636363636,70.34482758620689,397.3363636363636C58.62068965517241,397.3363636363636,58.62068965517241,456.5818181818182,46.89655172413793,456.5818181818182C35.172413793103445,456.5818181818182,35.172413793103445,430.3727272727273,23.448275862068964,430.3727272727273C11.724137931034482,430.3727272727273,11.724137931034482,453.07272727272726,0,453.07272727272726Z"><title>Northern Europe</title></path><path fill="rgb(255, 155, 33)" d="M0,458C11.724137931034482,458,11.724137931034482,460,23.448275862068964,460C35.172413793103445,460,35.172413793103445,458,46.89655172413793,458C58.62068965517241,458,58.62068965517241,460,70.34482758620689,460C82.06896551724137,460,82.06896551724137,458,93.79310344827586,458C117.24137931034483,458,117.24137931034483,460,140.68965517241378,460C152.41379310344826,460,152.41379310344826,458,164.13793103448276,458C175.86206896551724,458,175.86206896551724,459.79090909090905,187.58620689655172,459.79090909090905C199.31034482758622,459.79090909090905,199.31034482758622,457.3727272727273,211.0344827586207,457.3727272727273C222.75862068965517,457.3727272727273,222.75862068965517,458.5818181818182,234.48275862068968,458.5818181818182C269.65517241379314,458.5818181818182,269.65517241379314,460,304.82758620689657,460C316.55172413793105,460,316.55172413793105,460,328.2758620689655,460C340,460,340,459,351.72413793103453,459C363.44827586206895,459,363.44827586206895,459.79090909090905,375.17241379310343,459.79090909090905C386.8965517241379,459.79090909090905,386.8965517241379,459.79090909090905,398.6206896551724,459.79090909090905C410.34482758620686,459.79090909090905,410.34482758620686,460,422.0689655172414,460C433.7931034482759,460,433.7931034482759,460,445.51724137931035,460C457.2413793103449,460,457.2413793103449,458.79090909090905,468.96551724137936,458.79090909090905C480.68965517241384,458.79090909090905,480.68965517241384,458,492.41379310344826,458C504.13793103448273,458,504.13793103448273,459.79090909090905,515.8620689655172,459.79090909090905C527.5862068965517,459.79090909090905,527.5862068965517,454.4909090909091,539.3103448275863,454.4909090909091C551.0344827586207,454.4909090909091,551.0344827586207,453.8636363636364,562.7586206896551,453.8636363636364C574.4827586206895,453.8636363636364,574.4827586206895,452.81818181818187,586.2068965517241,452.81818181818187C597.9310344827586,452.81818181818187,597.9310344827586,452.9818181818182,609.6551724137931,452.9818181818182C621.3793103448277,452.9818181818182,621.3793103448277,453.4,633.1034482758621,453.4C644.8275862068965,453.4,644.8275862068965,452.56363636363636,656.551724137931,452.56363636363636C668.2758620689656,452.56363636363636,668.2758620689656,451.93636363636364,680,451.93636363636364L680,454.6545454545454C668.2758620689656,454.6545454545454,668.2758620689656,455.90909090909093,656.551724137931,455.90909090909093C644.8275862068965,455.90909090909093,644.8275862068965,456.11818181818177,633.1034482758621,456.11818181818177C621.3793103448277,456.11818181818177,621.3793103448277,455.4909090909091,609.6551724137931,455.4909090909091C597.9310344827586,455.4909090909091,597.9310344827586,455.3272727272727,586.2068965517241,455.3272727272727C574.4827586206895,455.3272727272727,574.4827586206895,455.95454545454544,562.7586206896551,455.95454545454544C551.0344827586207,455.95454545454544,551.0344827586207,455.53636363636366,539.3103448275863,455.53636363636366C527.5862068965517,455.53636363636366,527.5862068965517,460,515.8620689655172,460C504.13793103448273,460,504.13793103448273,458,492.41379310344826,458C480.68965517241384,458,480.68965517241384,459,468.96551724137936,459C457.2413793103449,459,457.2413793103449,460,445.51724137931035,460C433.7931034482759,460,433.7931034482759,460,422.0689655172414,460C410.34482758620686,460,410.34482758620686,460,398.6206896551724,460C386.8965517241379,460,386.8965517241379,460,375.17241379310343,460C363.44827586206895,460,363.44827586206895,459,351.72413793103453,459C340,459,340,460,328.2758620689655,460C316.55172413793105,460,316.55172413793105,460,304.82758620689657,460C269.65517241379314,460,269.65517241379314,458.79090909090905,234.48275862068968,458.79090909090905C222.75862068965517,458.79090909090905,222.75862068965517,458,211.0344827586207,458C199.31034482758622,458,199.31034482758622,460,187.58620689655172,460C175.86206896551724,460,175.86206896551724,458,164.13793103448276,458C152.41379310344826,458,152.41379310344826,460,140.68965517241378,460C117.24137931034483,460,117.24137931034483,458,93.79310344827586,458C82.06896551724137,458,82.06896551724137,460,70.34482758620689,460C58.62068965517241,460,58.62068965517241,458,46.89655172413793,458C35.172413793103445,458,35.172413793103445,460,23.448275862068964,460C11.724137931034482,460,11.724137931034482,458,0,458Z"><title>Southeast Asia</title></path><path fill="rgb(74, 68, 188)" d="M0,458C11.724137931034482,458,11.724137931034482,460,23.448275862068964,460C35.172413793103445,460,35.172413793103445,458,46.89655172413793,458C58.62068965517241,458,58.62068965517241,460,70.34482758620689,460C82.06896551724137,460,82.06896551724137,458,93.79310344827586,458C117.24137931034483,458,117.24137931034483,460,140.68965517241378,460C152.41379310344826,460,152.41379310344826,457,164.13793103448276,457C175.86206896551724,457,175.86206896551724,460,187.58620689655172,460C199.31034482758622,460,199.31034482758622,458,211.0344827586207,458C222.75862068965517,458,222.75862068965517,460,234.48275862068968,460C269.65517241379314,460,269.65517241379314,460,304.82758620689657,460C316.55172413793105,460,316.55172413793105,460,328.2758620689655,460C340,460,340,458,351.72413793103453,458C363.44827586206895,458,363.44827586206895,460,375.17241379310343,460C386.8965517241379,460,386.8965517241379,460,398.6206896551724,460C410.34482758620686,460,410.34482758620686,460,422.0689655172414,460C433.7931034482759,460,433.7931034482759,459,445.51724137931035,459C457.2413793103449,459,457.2413793103449,459,468.96551724137936,459C480.68965517241384,459,480.68965517241384,457,492.41379310344826,457C504.13793103448273,457,504.13793103448273,460,515.8620689655172,460C527.5862068965517,460,527.5862068965517,460,539.3103448275863,460C551.0344827586207,460,551.0344827586207,460,562.7586206896551,460C574.4827586206895,460,574.4827586206895,449.09999999999997,586.2068965517241,449.09999999999997C597.9310344827586,449.09999999999997,597.9310344827586,449.4727272727273,609.6551724137931,449.4727272727273C621.3793103448277,449.4727272727273,621.3793103448277,449.6818181818182,633.1034482758621,449.6818181818182C644.8275862068965,449.6818181818182,644.8275862068965,446.75454545454545,656.551724137931,446.75454545454545C668.2758620689656,446.75454545454545,668.2758620689656,448.0090909090909,680,448.0090909090909L680,450.93636363636364C668.2758620689656,450.93636363636364,668.2758620689656,451.56363636363636,656.551724137931,451.56363636363636C644.8275862068965,451.56363636363636,644.8275862068965,452.4,633.1034482758621,452.4C621.3793103448277,452.4,621.3793103448277,451.9818181818182,609.6551724137931,451.9818181818182C597.9310344827586,451.9818181818182,597.9310344827586,451.81818181818187,586.2068965517241,451.81818181818187C574.4827586206895,451.81818181818187,574.4827586206895,460,562.7586206896551,460C551.0344827586207,460,551.0344827586207,460,539.3103448275863,460C527.5862068965517,460,527.5862068965517,460,515.8620689655172,460C504.13793103448273,460,504.13793103448273,457,492.41379310344826,457C480.68965517241384,457,480.68965517241384,459,468.96551724137936,459C457.2413793103449,459,457.2413793103449,459,445.51724137931035,459C433.7931034482759,459,433.7931034482759,460,422.0689655172414,460C410.34482758620686,460,410.34482758620686,460,398.6206896551724,460C386.8965517241379,460,386.8965517241379,460,375.17241379310343,460C363.44827586206895,460,363.44827586206895,458,351.72413793103453,458C340,458,340,460,328.2758620689655,460C316.55172413793105,460,316.55172413793105,460,304.82758620689657,460C269.65517241379314,460,269.65517241379314,460,234.48275862068968,460C222.75862068965517,460,222.75862068965517,458,211.0344827586207,458C199.31034482758622,458,199.31034482758622,460,187.58620689655172,460C175.86206896551724,460,175.86206896551724,457,164.13793103448276,457C152.41379310344826,457,152.41379310344826,460,140.68965517241378,460C117.24137931034483,460,117.24137931034483,458,93.79310344827586,458C82.06896551724137,458,82.06896551724137,460,70.34482758620689,460C58.62068965517241,460,58.62068965517241,458,46.89655172413793,458C35.172413793103445,458,35.172413793103445,460,23.448275862068964,460C11.724137931034482,460,11.724137931034482,458,0,458Z"><title>Central Asia</title></path><path fill="rgb(203, 232, 57)" d="M0,458C11.724137931034482,458,11.724137931034482,460,23.448275862068964,460C35.172413793103445,460,35.172413793103445,458,46.89655172413793,458C58.62068965517241,458,58.62068965517241,460,70.34482758620689,460C82.06896551724137,460,82.06896551724137,458,93.79310344827586,458C117.24137931034483,458,117.24137931034483,460,140.68965517241378,460C152.41379310344826,460,152.41379310344826,457,164.13793103448276,457C175.86206896551724,457,175.86206896551724,460,187.58620689655172,460C199.31034482758622,460,199.31034482758622,458,211.0344827586207,458C222.75862068965517,458,222.75862068965517,460,234.48275862068968,460C269.65517241379314,460,269.65517241379314,460,304.82758620689657,460C316.55172413793105,460,316.55172413793105,460,328.2758620689655,460C340,460,340,458,351.72413793103453,458C363.44827586206895,458,363.44827586206895,460,375.17241379310343,460C386.8965517241379,460,386.8965517241379,460,398.6206896551724,460C410.34482758620686,460,410.34482758620686,460,422.0689655172414,460C433.7931034482759,460,433.7931034482759,459,445.51724137931035,459C457.2413793103449,459,457.2413793103449,459,468.96551724137936,459C480.68965517241384,459,480.68965517241384,457,492.41379310344826,457C504.13793103448273,457,504.13793103448273,460,515.8620689655172,460C527.5862068965517,460,527.5862068965517,460,539.3103448275863,460C551.0344827586207,460,551.0344827586207,459,562.7586206896551,459C574.4827586206895,459,574.4827586206895,458.5818181818182,586.2068965517241,458.5818181818182C597.9310344827586,458.5818181818182,597.9310344827586,460,609.6551724137931,460C621.3793103448277,460,621.3793103448277,460,633.1034482758621,460C644.8275862068965,460,644.8275862068965,460,656.551724137931,460C668.2758620689656,460,668.2758620689656,460,680,460L680,460C668.2758620689656,460,668.2758620689656,460,656.551724137931,460C644.8275862068965,460,644.8275862068965,460,633.1034482758621,460C621.3793103448277,460,621.3793103448277,460,609.6551724137931,460C597.9310344827586,460,597.9310344827586,458.79090909090905,586.2068965517241,458.79090909090905C574.4827586206895,458.79090909090905,574.4827586206895,459,562.7586206896551,459C551.0344827586207,459,551.0344827586207,460,539.3103448275863,460C527.5862068965517,460,527.5862068965517,460,515.8620689655172,460C504.13793103448273,460,504.13793103448273,457,492.41379310344826,457C480.68965517241384,457,480.68965517241384,459,468.96551724137936,459C457.2413793103449,459,457.2413793103449,459,445.51724137931035,459C433.7931034482759,459,433.7931034482759,460,422.0689655172414,460C410.34482758620686,460,410.34482758620686,460,398.6206896551724,460C386.8965517241379,460,386.8965517241379,460,375.17241379310343,460C363.44827586206895,460,363.44827586206895,458,351.72413793103453,458C340,458,340,460,328.2758620689655,460C316.55172413793105,460,316.55172413793105,460,304.82758620689657,460C269.65517241379314,460,269.65517241379314,460,234.48275862068968,460C222.75862068965517,460,222.75862068965517,458,211.0344827586207,458C199.31034482758622,458,199.31034482758622,460,187.58620689655172,460C175.86206896551724,460,175.86206896551724,457,164.13793103448276,457C152.41379310344826,457,152.41379310344826,460,140.68965517241378,460C117.24137931034483,460,117.24137931034483,458,93.79310344827586,458C82.06896551724137,458,82.06896551724137,460,70.34482758620689,460C58.62068965517241,460,58.62068965517241,458,46.89655172413793,458C35.172413793103445,458,35.172413793103445,460,23.448275862068964,460C11.724137931034482,460,11.724137931034482,458,0,458Z"><title>Polynesia</title></path></g><g id="xAxis" transform="translate(0,460)" fill="none" font-size="10" font-family="sans-serif" text-anchor="middle"><path class="domain" stroke="currentColor" d="M0,0H680"/><g class="tick" opacity="1" transform="translate(23.448275862068964,0)"><line stroke="currentColor" y2="6"/><text fill="currentColor" y="9" dy="0.71em">1,900</text></g><g class="tick" opacity="1" transform="translate(82.06896551724138,0)"><line stroke="currentColor" y2="6"/><text fill="currentColor" y="9" dy="0.71em">1,910</text></g><g class="tick" opacity="1" transform="translate(140.68965517241378,0)"><line stroke="currentColor" y2="6"/><text fill="currentColor" y="9" dy="0.71em">1,920</text></g><g class="tick" opacity="1" transform="translate(199.3103448275862,0)"><line stroke="currentColor" y2="6"/><text fill="currentColor" y="9" dy="0.71em">1,930</text></g><g class="tick" opacity="1" transform="translate(257.9310344827586,0)"><line stroke="currentColor" y2="6"/><text fill="currentColor" y="9" dy="0.71em">1,940</text></g><g class="tick" opacity="1" transform="translate(316.55172413793105,0)"><line stroke="currentColor" y2="6"/><text fill="currentColor" y="9" dy="0.71em">1,950</text></g><g class="tick" opacity="1" transform="translate(375.17241379310343,0)"><line stroke="currentColor" y2="6"/><text fill="currentColor" y="9" dy="0.71em">1,960</text></g><g class="tick" opacity="1" transform="translate(433.7931034482759,0)"><line stroke="currentColor" y2="6"/><text fill="currentColor" y="9" dy="0.71em">1,970</text></g><g class="tick" opacity="1" transform="translate(492.41379310344826,0)"><line stroke="currentColor" y2="6"/><text fill="currentColor" y="9" dy="0.71em">1,980</text></g><g class="tick" opacity="1" transform="translate(551.0344827586207,0)"><line stroke="currentColor" y2="6"/><text fill="currentColor" y="9" dy="0.71em">1,990</text></g><g class="tick" opacity="1" transform="translate(609.6551724137931,0)"><line stroke="currentColor" y2="6"/><text fill="currentColor" y="9" dy="0.71em">2,000</text></g><g class="tick" opacity="1" transform="translate(668.2758620689655,0)"><line stroke="currentColor" y2="6"/><text fill="currentColor" y="9" dy="0.71em">2,010</text></g></g><text y="456" x="680" text-anchor="end" style="font-family: Arial, sans-serif; font-size: 12px; fill: rgb(123, 123, 123); font-weight: bold;">Year</text><text x="4" text-anchor="start" dominant-baseline="hanging" style="font-family: Arial, sans-serif; font-size: 12px; fill: rgb(123, 123, 123); font-weight: bold;">Medals</text><g id="labels"><text x="351.72413793103453" y="436.5409090909091" text-anchor="middle" alignment-baseline="middle" style="font-family: Arial, sans-serif; font-size: 10px; fill: black; font-weight: bold;">South Asia</text><text x="609.6551724137931" y="457.53636363636366" text-anchor="middle" alignment-baseline="middle" style="font-family: Arial, sans-serif; font-size: 10px; fill: black; font-weight: bold;">North Africa</text><text x="656.551724137931" y="303.3818181818182" text-anchor="middle" alignment-baseline="middle" style="font-family: Arial, sans-serif; font-size: 10px; fill: black; font-weight: bold;">Latin America and the Caribbean</text><text x="680" y="434.6136363636364" text-anchor="end" alignment-baseline="middle" style="font-family: Arial, sans-serif; font-size: 10px; fill: black; font-weight: bold;">Western Asia</text><text x="609.6551724137931" y="336.0590909090909" text-anchor="middle" alignment-baseline="middle" style="font-family: Arial, sans-serif; font-size: 10px; fill: black; font-weight: bold;">Australasia</text><text x="140.68965517241378" y="333.0863636363636" text-anchor="middle" alignment-baseline="middle" style="font-family: Arial, sans-serif; font-size: 10px; fill: black; font-weight: bold;">Western Europe</text><text x="492.41379310344826" y="238.59545454545454" text-anchor="middle" alignment-baseline="middle" style="font-family: Arial, sans-serif; font-size: 10px; fill: black; font-weight: bold;">Eastern Europe</text><text x="46.89655172413793" y="399.57727272727277" text-anchor="middle" alignment-baseline="middle" style="font-family: Arial, sans-serif; font-size: 10px; fill: black; font-weight: bold;">Northern America</text><text x="656.551724137931" y="432.8363636363636" text-anchor="middle" alignment-baseline="middle" style="font-family: Arial, sans-serif; font-size: 10px; fill: black; font-weight: bold;">Sub-Saharan Africa</text><text x="656.551724137931" y="128.19545454545457" text-anchor="middle" alignment-baseline="middle" style="font-family: Arial, sans-serif; font-size: 10px; fill: black; font-weight: bold;">East Asia</text><text x="680" y="296.06363636363636" text-anchor="end" alignment-baseline="middle" style="font-family: Arial, sans-serif; font-size: 10px; fill: black; font-weight: bold;">Southern Europe</text><text x="93.79310344827586" y="325.5" text-anchor="middle" alignment-baseline="middle" style="font-family: Arial, sans-serif; font-size: 10px; fill: black; font-weight: bold;">Northern Europe</text><text x="656.551724137931" y="454.23636363636365" text-anchor="middle" alignment-baseline="middle" style="font-family: Arial, sans-serif; font-size: 10px; fill: black; font-weight: bold;">Southeast Asia</text><text x="656.551724137931" y="449.1590909090909" text-anchor="middle" alignment-baseline="middle" style="font-family: Arial, sans-serif; font-size: 10px; fill: black; font-weight: bold;">Central Asia</text><text x="586.2068965517241" y="458.68636363636364" text-anchor="middle" alignment-baseline="middle" style="font-family: Arial, sans-serif; font-size: 10px; fill: black; font-weight: bold;">Polynesia</text></g></g><text x="4" y="4" style="font-family: Arial, sans-serif; font-size: 12px; fill: black; font-weight: bold; dominant-baseline: hanging;"/></g></g></svg>
